<svg width="219" height="42" fill="none" xmlns="http://www.w3.org/2000/svg"><path d="M30.231 0H12.536C6.778 0 2.099 5.095 2.099 11.366v19.268C2.099 36.905 6.777 42 12.536 42H30.23c5.758-.065 10.377-5.16 10.377-11.43V11.365C40.608 5.095 35.99 0 30.231 0zm7.018 30.57c0 4.245-3.119 7.642-7.018 7.642H12.536c-2.88 0-5.339-1.895-6.418-4.638l.6-.588 1.26-3.984-2.46-4.573V11.366c0-4.246 3.119-7.643 7.018-7.643H30.23c3.899 0 7.018 3.462 7.018 7.643v19.203z" fill="#E6E7E8"/><path d="M33.23 29.85c.36.131.78.197 1.26.197 1.86 0 2.76-.784 2.76-1.764 0-1.11-1.44-1.11-1.56-2.156-.18-1.24-.06-6.793 1.92-9.797l1.32.653s.36.261.84.196c.299 0 .599-.131.899-.523.72-.849 2.76-3.658 3.419-5.16.18-.392-2.58-4.115-4.139-5.487-1.08-.914-2.4-1.502-3.899-1.502-2.7 0-5.038 1.894-5.878 4.507-1.74 1.372-5.159 3.527-8.818 4.572-4.259 1.241-8.637.066-11.637.261-3.839.196-6.118 3.266-6.058 6.794.12 3.592 2.34 6.858 2.34 10.255 0 2.678-1.98 3.853-3.36 3.853-1.62 0-1.74-.718-2.22-.718-.18 0-.419.196-.419.457 0 .915 2.04 1.764 3.18 1.764 3.058 0 4.318-2.352 4.318-2.352s.78 2.482 3.779 2.482c2.4 0 3.419-1.24 3.419-2.286 0-.849-.48-1.24-.84-1.698-.48-.719-.48-1.568-.48-1.568h1.44c1.74 0 2.28-.783 2.28-1.502 0-.98-1.02-.915-1.02-2.482 0-1.241.6-1.633 1.14-1.633.6 0 2.819.261 5.518.522.9.066 3.179 1.046 3.179 4.834v1.372c0 2.286.84 5.16 4.619 5.16 2.579 0 4.018-1.568 4.018-2.678 0-.719-.6-1.045-.9-1.503-.839-1.24-.42-3.07-.42-3.07z" fill="#FF671B"/><path d="M39.41 13.26c-.24 0-.42.196-.42.457s.18.457.42.457c.239 0 .419-.196.419-.457.06-.261-.18-.457-.42-.457zm1.559-1.437c-.24 0-.42.196-.42.457s.18.457.42.457.42-.196.42-.457-.18-.457-.42-.457zm.719-1.633c-.18 0-.36.13-.36.392 0 .196.12.392.36.392.18 0 .36-.13.36-.392 0-.196-.18-.392-.36-.392zm-12.716 2.286c.24 0 .48-.262.48-.523s-.24-.522-.48-.522-.48.26-.48.522c0 .327.24.523.48.523zm1.86 12.672c-.24 0-.48.261-.48.523 0 .26.24.522.48.522s.48-.261.48-.523c0-.26-.24-.522-.48-.522zm2.878.522c-.24 0-.48.262-.48.523s.24.522.48.522.48-.26.48-.522c0-.261-.24-.523-.48-.523zm-2.458-5.29c-.24 0-.48.26-.48.522 0 .261.24.522.48.522s.48-.26.48-.522c0-.261-.24-.523-.48-.523zm1.619-3.528c.24 0 .48-.261.48-.522 0-.262-.24-.523-.48-.523s-.48.261-.48.523c0 .261.18.522.48.522zm-7.497-2.09c.24 0 .48-.261.48-.523 0-.26-.24-.522-.48-.522s-.48.261-.48.522c0 .262.24.523.48.523zm2.698 9.34c-.24 0-.48.262-.48.523s.24.523.48.523.48-.262.48-.523c0-.326-.24-.523-.48-.523zm-1.319-6.792c.24 0 .48-.262.48-.523 0-.262-.24-.523-.48-.523s-.48.261-.48.523c0 .326.18.522.48.522zm-3.06 3.004c-.24 0-.48.262-.48.523s.24.523.48.523.48-.262.48-.523c0-.327-.18-.523-.48-.523zm4.98-.588c.24 0 .48-.261.48-.522 0-.262-.24-.523-.48-.523s-.48.261-.48.523c0 .326.24.522.48.522zm-7.56-4.703c-.24 0-.48.262-.48.523s.24.523.48.523.48-.262.48-.523-.24-.523-.48-.523zm1.021 2.744c-.24 0-.48.26-.48.522 0 .261.24.523.48.523s.48-.262.48-.523-.24-.522-.48-.522zm3.539 4.572c-.24 0-.48.261-.48.522 0 .262.24.523.48.523s.48-.261.48-.523c0-.326-.24-.522-.48-.522zm4.919-7.381c.24 0 .48-.261.48-.522 0-.262-.24-.523-.48-.523s-.48.261-.48.523c0 .26.18.522.48.522zm3.539 6.467c-.24 0-.48.261-.48.522 0 .262.24.523.48.523s.48-.261.48-.523c0-.326-.24-.522-.48-.522zm1.199-4.312c-.24 0-.48.262-.48.523s.24.522.48.522.48-.26.48-.522c0-.261-.24-.523-.48-.523zm-.3-4.245c-.24 0-.479.261-.479.522s.24.523.48.523.48-.261.48-.523c0-.326-.24-.522-.48-.522zm2.28.784c-.24 0-.48.261-.48.522 0 .262.24.523.48.523s.48-.261.48-.523c-.06-.326-.24-.522-.48-.522zm-4.019-2.417c-.24 0-.48.261-.48.522 0 .262.24.523.48.523s.48-.261.48-.523c0-.326-.24-.522-.48-.522zm-.959-1.96c-.24 0-.48.262-.48.523s.24.522.48.522.48-.26.48-.522c0-.327-.18-.523-.48-.523zm1.979 0c-.24 0-.48.262-.48.523s.24.522.48.522.48-.26.48-.522c0-.327-.18-.523-.48-.523zm-2.219-1.437c0-.261.18-.457.42-.457s.42.196.42.457-.18.457-.42.457-.42-.196-.42-.457zm1.138-1.633c0-.195.12-.326.3-.326s.3.13.3.327c0 .195-.12.326-.3.326-.12.065-.3-.13-.3-.327zm1.56-.718c0-.13.12-.261.24-.261s.24.13.24.26c0 .131-.12.262-.24.262s-.24-.13-.24-.261zm6.599 3.593c0-.131.12-.262.24-.262s.24.13.24.261c0 .13-.12.261-.24.261s-.24-.13-.24-.26zm-.359 5.225c0-.131.119-.262.239-.327.12 0 .24.13.3.261 0 .13-.12.262-.24.327-.12 0-.24-.065-.3-.261zm.719-.98c0-.13.12-.261.24-.326.12 0 .24.13.3.26 0 .131-.12.262-.24.327-.18 0-.3-.13-.3-.26zm-1.439 1.96c0-.131.12-.262.24-.327.119 0 .239.13.299.261 0 .13-.12.262-.24.327s-.24-.065-.3-.261zm-.78.98c0-.131.12-.262.24-.327.12 0 .24.13.3.261 0 .13-.12.261-.24.327-.18 0-.3-.13-.3-.261zm2.818-3.985c0-.13.12-.262.24-.327.12 0 .24.13.24.261s-.12.262-.24.327-.24-.065-.24-.261zm.48-.85c0-.13.12-.26.24-.326.12 0 .24.13.3.261 0 .13-.12.262-.24.327-.18 0-.3-.13-.3-.261zM12.897 33.509s-1.74-3.332-.54-6.663c1.32-3.723 5.219-3.266 5.219-3.266-.6-.326-1.32-.457-2.04-.457-2.7.13-4.739 2.743-4.619 5.944 0 1.829.78 3.397 1.98 4.442z" fill="#fff"/><path d="M6.418 22.992c-.78-.849-1.2-1.96-1.2-3.2 0-2.482 1.86-4.377 4.139-4.573 2.4-.13 6.718.654 9.477.262.96 4.637 5.219 9.21 8.578 11.235-3.959-1.895-7.798-6.271-11.097-8.296-3.48-2.09-6.958-2.417-8.758-.588-1.56 1.568-1.44 3.789-1.14 5.16zm9.778 4.703c.24 1.372-2.04 1.764-2.04 1.764 2.04.392 2.76-.784 2.76-.784l-.72-.98zm16.134.719s-1.319 2.024-.419 5.748c-.54.587-1.56 1.045-2.34 1.306 0 0 3.06.457 4.02-1.372-1.86-1.567-1.26-5.421-1.26-5.682zM38.45 7.12c-1.2-.261-2.28.457-2.46 1.502-.18 1.045.66 2.156 1.8 2.352 1.2.26 2.28-.458 2.46-1.503.18-1.045-.6-2.09-1.8-2.351zm1.5 2.286c-.12.784-.9 1.241-1.74 1.11-.84-.196-1.44-.914-1.32-1.698.12-.784.9-1.24 1.74-1.11.84.196 1.44.98 1.32 1.698z" fill="#fff"/><path d="M38.329 9.08a.758.758 0 01.96-.588c.48.065.78.522.72.914a.758.758 0 01-.96.588c-.48-.065-.78-.457-.72-.914zM35.87 26.585c.72 1.502-1.62 2.025-1.62 2.025 1.62.326 2.58-.85 2.58-1.307-.36-1.633-.78-.392-.96-.718zm4.858-18.29c-.6-1.11-1.679-1.894-2.999-1.894-1.14 0-2.16.653-2.819 1.568-.18.261-.54.326-.78.065-.24-.196-.24-.588-.06-.849.72-.914 1.8-1.437 3-1.437a4.128 4.128 0 013.658 2.547zm-3.718 7.708c-1.2-.065-2.82-.718-4.26-1.894-1.259-.98-2.159-2.156-2.639-3.266-.12-.196-.06-.457.12-.523.18-.13.42-.065.48.131.54 1.176 1.32 2.482 2.52 3.527 1.26 1.11 2.579 1.83 3.779 2.025zm-1.62 3.658c-2.219-.13-4.738-1.437-6.718-3.593-.9-1.045-1.62-2.155-2.1-3.2-.12-.196-.06-.457.12-.523.18-.13.42-.065.48.13.6 1.307 1.32 2.744 2.46 4.05 1.8 1.83 3.839 2.94 5.758 3.136zm-12.477-5.487c.18-.065.42.066.48.261.96 2.548 1.44 3.593 3.24 5.683 2.459 2.809 5.998 3.854 7.917 3.854-1.68.13-5.758-.653-8.638-3.92-1.62-1.828-2.759-3.722-3.299-5.42 0-.131.12-.327.3-.458z" fill="#fff"/><path d="M35.93 11.104c.48.327 1.2.653 2.099.719 1.98.065 2.7-1.633 2.76-2.352 0 .457-.54 2.874-3 2.874-.96 0-1.68-.196-2.22-.588a.457.457 0 01-.18-.522c.12-.13.36-.261.54-.13zM55.904 29.72c0 .784-.42 1.437-1.02 1.633.66.261 1.2.914 1.2 1.764 0 1.502-.96 2.22-2.699 2.22h-3.12v-7.773h2.94c1.68 0 2.7.654 2.7 2.156zm-4.199 1.045h1.5c.72 0 1.26-.13 1.26-.914 0-.719-.54-.915-1.26-.915h-1.5v1.83zm0 3.266h1.62c.78 0 1.26-.196 1.26-.98 0-.718-.48-.914-1.26-.914h-1.62v1.894zm10.678 1.372l-.6-1.83h-3.06l-.6 1.83h-1.499l2.82-7.838h1.739l2.82 7.838h-1.62zm-1.14-3.266l-1.02-3.005-1.02 3.005h2.04zm8.698 3.266l-3.659-5.291v5.29h-1.44v-7.838h1.32l3.66 5.226v-5.226h1.439v7.839h-1.32zm4.378-3.266v3.266h-1.44v-7.838h1.44V30.7h.72l2.339-3.136h1.8l-3 3.789 3.24 4.05h-1.86l-2.58-3.266h-.66zm15.536-.653c0 2.351-1.56 4.05-3.78 4.05-2.219 0-3.778-1.699-3.778-4.05 0-2.352 1.56-4.05 3.779-4.05 2.22-.065 3.779 1.698 3.779 4.05zm-6.059 0c0 1.502.96 2.547 2.28 2.547 1.32 0 2.28-1.045 2.28-2.547 0-1.503-.96-2.548-2.28-2.548-1.32 0-2.28.98-2.28 2.548zm8.819.718v3.2h-1.44v-7.838h5.279v1.438h-3.84v1.763h3.6v1.437h-3.6zm13.855-3.592l-1.02 1.11c-.42-.522-1.019-.85-1.739-.85-1.32 0-2.28 1.046-2.28 2.614 0 1.633 1.02 2.612 2.22 2.612 1.199 0 1.859-.587 2.039-1.698h-1.859v-1.306h3.299v.457c0 2.351-1.5 4.05-3.539 4.05-1.98 0-3.78-1.568-3.78-4.05 0-2.351 1.62-4.05 3.78-4.05 1.319-.13 2.279.327 2.879 1.11zm2.04 6.793v-7.838h5.398V29h-3.959v1.7h3.719v1.437h-3.719v1.829h3.959v1.437h-5.398zm14.037-3.919c0 2.351-1.56 4.05-3.779 4.05-2.22 0-3.779-1.699-3.779-4.05 0-2.352 1.559-4.05 3.779-4.05 2.219-.065 3.779 1.698 3.779 4.05zm-6.059 0c0 1.502.96 2.547 2.28 2.547 1.319 0 2.279-1.045 2.279-2.547 0-1.503-.96-2.548-2.279-2.548-1.32-.065-2.28.98-2.28 2.548zm13.076-1.568c0 1.241-.779 2.155-2.159 2.286h-.06l2.219 3.135h-1.739l-2.1-3.135h-.419v3.2h-1.44v-7.838h3.059c1.68 0 2.639.85 2.639 2.352zm-4.258.98h1.559c.78 0 1.2-.327 1.2-.98s-.42-.98-1.2-.98h-1.559v1.96zm11.697-2.286l-1.02 1.11c-.419-.522-1.019-.85-1.739-.85-1.32 0-2.279 1.046-2.279 2.614 0 1.633 1.019 2.612 2.219 2.612s1.859-.587 2.039-1.698h-1.859v-1.306h3.299v.457c0 2.351-1.5 4.05-3.539 4.05-1.98 0-3.779-1.568-3.779-4.05 0-2.351 1.62-4.05 3.779-4.05 1.32-.13 2.279.327 2.879 1.11zm3.479-1.046h-1.439v7.839h1.439v-7.838zm6.777 7.839l-.599-1.83h-3.06l-.599 1.83h-1.5l2.819-7.838h1.74l2.819 7.838h-1.62zm-1.139-3.266l-1.02-3.005-1.08 3.005h2.1zm-95.854-15.35v-6.27h1.92v6.205c0 1.763.78 2.547 1.919 2.547 1.2 0 1.98-.718 1.98-1.894 0-1.372-1.38-1.633-1.38-3.266h1.92c.06.915 1.439 1.306 1.439 3.527 0 2.09-1.62 3.593-3.96 3.593-2.279-.065-3.838-1.502-3.838-4.442zm8.997 0v-.653h1.92v.587c0 1.764.78 2.548 1.979 2.548 1.2 0 1.92-.784 1.92-2.025 0-2.417-3-3.135-3-6.01v-.652h1.92v.522c0 2.286 3.119 2.482 3.119 6.14 0 2.547-1.62 4.05-3.959 4.05-2.34-.13-3.899-1.568-3.899-4.507zm9.058.457v-.653h1.92v.523c0 1.306.78 2.09 1.86 2.09 1.139 0 1.859-.784 1.859-2.547v-1.568c0-1.437-.84-1.894-1.68-1.894-1.14 0-1.56.784-1.56 1.567v.196h-1.919v-.196c0-1.96 1.38-3.396 3.12-3.396.659 0 1.559.261 2.039 1.175v-2.024h1.92v6.27c0 2.94-1.56 4.377-3.84 4.377-2.1 0-3.719-1.437-3.719-3.92zm8.997-.457v-.653h1.92v.587c0 1.764.78 2.548 1.98 2.548 1.199 0 1.919-.784 1.919-2.025 0-2.417-3-3.135-3-6.01v-.652h1.92v.522c0 2.286 3.12 2.482 3.12 6.14 0 2.547-1.62 4.05-3.96 4.05-2.339-.13-3.899-1.568-3.899-4.507zm20.574.784v3.462h-1.98v-3.266c0-1.176-.48-1.829-1.319-1.829-.78 0-1.44.588-1.44 1.698v2.156h-1.979v-2.156c0-1.045-.48-1.698-1.32-1.698-.78 0-1.38.588-1.38 1.829v3.2h-1.979v-4.702c0-4.703 3.12-5.748 5.639-5.748h2.879v1.96h-2.58c-2.099 0-3.778.718-4.018 2.416.42-.523 1.02-.915 1.74-.915.78 0 1.619.458 2.099 1.633.6-1.175 1.5-1.633 2.579-1.633 1.8 0 3.06 1.503 3.06 3.593zm1.381-.784v-2.09c0-2.874 1.559-4.377 3.659-4.377 1.139 0 2.339.523 2.819 1.83.6-1.307 1.559-1.83 2.699-1.83 1.68 0 3.239 1.503 3.239 3.92v6.727h-1.919v-6.662c0-1.241-.66-2.025-1.56-2.025s-1.499.784-1.499 2.025v2.482c0 2.874-1.56 4.376-3.719 4.376-2.16 0-3.72-1.437-3.72-4.376zm5.578-.065v-1.96c0-1.698-.78-2.482-1.799-2.482-1.02 0-1.8.784-1.8 2.482v1.96c0 1.763.78 2.547 1.8 2.547 1.019 0 1.799-.784 1.799-2.547zm8.637.653v-.523h1.919v.392c0 1.11.78 1.96 2.04 1.96 1.259 0 1.979-.523 1.979-1.372 0-.914-.78-1.24-1.559-1.24h-1.02v-1.895h1.02c.839 0 1.439-.261 1.439-1.11 0-.784-.66-1.438-1.859-1.438-1.26 0-2.04.85-2.04 1.83v.26h-1.919v-.391c0-2.025 1.619-3.658 4.019-3.658 2.219 0 3.839 1.502 3.839 3.266 0 1.11-.6 1.764-1.5 2.09 1.08.196 1.68 1.045 1.68 2.286 0 1.83-1.62 3.2-4.019 3.2-2.46.131-4.019-1.305-4.019-3.657zm9.359-.131v-.653h1.919v.653c0 1.241.78 2.025 1.859 2.025 1.14 0 1.86-.784 1.86-2.482v-2.025c0-1.698-.78-2.482-1.86-2.482-1.139 0-1.859.784-1.859 2.025v.196h-1.919v-.196c0-2.482 1.559-3.92 3.838-3.92 2.22 0 3.779 1.503 3.779 4.377v2.09c0 2.94-1.559 4.377-3.779 4.377-2.279-.066-3.838-1.503-3.838-3.985zm8.998-2.024v-1.307c0-2.09 1.319-3.593 3.059-3.593.84 0 1.979.457 2.459 1.633a2.577 2.577 0 012.34-1.633c.719 0 1.799.457 2.219 1.633.54-1.175 1.56-1.633 2.519-1.633 1.74 0 2.999 1.503 2.999 3.593v2.743h-1.919v-2.743c0-1.176-.48-1.83-1.26-1.83-.719 0-1.379.589-1.379 1.7v2.547h-1.92v-2.548c0-1.045-.6-1.698-1.319-1.698-.72 0-1.32.588-1.32 1.698v2.548h-1.92v-2.548c0-1.045-.479-1.698-1.259-1.698-.72 0-1.32.588-1.32 1.829v1.045c0 2.743 1.08 4.05 4.499 4.05h6.298v1.96h-6.598c-2.759 0-6.178-1.046-6.178-5.749zm28.611-1.307v7.12h-1.979v-6.99c0-1.175-.48-1.828-1.32-1.828-.78 0-1.44.587-1.44 1.698v4.376h-1.979v-4.376c0-1.045-.48-1.698-1.32-1.698-.779 0-1.379.587-1.379 1.829v6.923h-1.98v-7.054c0-2.09 1.38-3.593 3.179-3.593.9 0 2.04.457 2.52 1.633.54-1.175 1.559-1.633 2.639-1.633 1.86 0 3.059 1.503 3.059 3.593zm1.98 2.874v-6.27h1.919v6.205c0 1.763.78 2.547 1.92 2.547 1.199 0 1.979-.718 1.979-1.894 0-1.372-1.379-1.633-1.379-3.266h1.919c.06.915 1.44 1.306 1.44 3.527 0 2.09-1.62 3.593-3.959 3.593-2.28-.065-3.839-1.502-3.839-4.442zm20.274.784c0 2.09-1.559 3.658-3.899 3.658-2.339 0-3.838-1.502-3.838-3.658 0-1.894 1.199-3.266 3.119-3.593v-.718c0-1.11-1.2-1.11-1.2-2.743h1.919c0 .98 1.2 1.11 1.2 2.416v1.176c1.68.392 2.699 1.698 2.699 3.462zm-1.979-.065c0-1.11-.78-1.83-1.92-1.83-1.139 0-1.859.785-1.859 1.83 0 1.11.78 1.894 1.859 1.894 1.14-.065 1.92-.784 1.92-1.894zm3.179-.719v-.653h1.919v.587c0 1.764.78 2.548 1.98 2.548 1.199 0 1.919-.784 1.919-2.025 0-2.417-2.999-3.135-2.999-6.01v-.652h1.92v.522c0 2.286 3.119 2.482 3.119 6.14 0 2.547-1.62 4.05-3.959 4.05-2.34-.13-3.899-1.568-3.899-4.507zm9.177.783v-3.984c0-1.96 1.679-3.005 3.299-3.005h3.779v1.764h-3.479c-.84 0-1.68.457-1.68 1.437v1.372c.36-.653 1.08-1.176 2.34-1.176 1.799 0 3.419 1.437 3.419 3.593 0 2.09-1.62 3.657-3.839 3.657-2.28-.065-3.839-1.567-3.839-3.657zm5.698-.065c0-1.045-.78-1.829-1.859-1.829-1.14 0-1.92.784-1.92 1.83 0 1.11.78 1.894 1.92 1.894 1.139-.066 1.859-.784 1.859-1.895zm3.18-.195v-.458h1.92v.327c0 1.241.779 2.025 2.039 2.025 1.26 0 1.979-.523 1.979-1.698 0-1.11-.779-1.568-2.039-1.568h-.84v-1.894h1.02c1.14 0 1.62-.523 1.62-1.633v-1.96h1.919v2.221c0 1.11-.6 1.894-1.68 2.286 1.08.327 1.92 1.11 1.92 2.809 0 1.894-1.62 3.396-4.019 3.396-2.279 0-3.839-1.437-3.839-3.853zm9.597-2.679c0-2.808 1.56-4.31 3.719-4.31 2.16 0 3.719 1.502 3.719 4.31v6.336h-1.919v-6.336c0-1.633-.78-2.416-1.8-2.416-1.019 0-1.799.783-1.799 2.416v6.336h-1.92v-6.336z" fill="#fff"/></svg>