<svg width="189" height="48" fill="none" xmlns="http://www.w3.org/2000/svg"><path d="M24.986 8H10.361c-4.759 0-8.626 3.882-8.626 8.66v14.68c0 4.778 3.867 8.66 8.626 8.66h14.625c4.76-.05 8.577-3.932 8.577-8.71V16.66c0-4.778-3.818-8.66-8.577-8.66zm5.8 23.29a5.787 5.787 0 01-5.8 5.824H10.361c-2.38 0-4.412-1.444-5.304-3.534l.495-.448 1.042-3.036-2.033-3.483v-9.954a5.787 5.787 0 015.8-5.822h14.625c3.222 0 5.8 2.637 5.8 5.822v14.632z" fill="#E6E7E8"/><path d="M27.465 30.744c.297.1.644.149 1.04.149 1.538 0 2.281-.597 2.281-1.344 0-.846-1.19-.846-1.289-1.642-.148-.946-.05-5.176 1.587-7.465l1.09.497s.298.2.694.15c.248 0 .496-.1.744-.398.595-.647 2.28-2.787 2.826-3.932.149-.299-2.132-3.135-3.42-4.18-.893-.697-1.984-1.145-3.223-1.145a5.166 5.166 0 00-4.859 3.434c-1.437 1.045-4.263 2.687-7.287 3.484-3.52.945-7.139.05-9.618.199-3.173.149-5.056 2.488-5.007 5.176.1 2.737 1.934 5.225 1.934 7.813a2.83 2.83 0 01-2.777 2.936c-1.338 0-1.437-.547-1.834-.547-.149 0-.347.149-.347.348 0 .697 1.686 1.344 2.627 1.344 2.529 0 3.57-1.792 3.57-1.792S6.84 35.72 9.32 35.72c1.983 0 2.826-.945 2.826-1.742 0-.647-.397-.945-.694-1.294-.397-.547-.397-1.194-.397-1.194h1.19c1.438 0 1.884-.597 1.884-1.145 0-.746-.843-.696-.843-1.89 0-.946.496-1.245.942-1.245.496 0 2.33.2 4.561.398.744.05 2.628.796 2.628 3.683v1.045c0 1.742.694 3.932 3.817 3.932 2.132 0 3.321-1.195 3.321-2.04 0-.548-.495-.797-.743-1.145-.694-.946-.347-2.34-.347-2.34z" fill="#FF671B"/><path d="M32.571 18.102a.34.34 0 00-.347.349.34.34 0 00.347.348.34.34 0 00.347-.348c.05-.2-.148-.349-.347-.349zm1.289-1.094a.34.34 0 00-.347.348.34.34 0 00.347.348.34.34 0 00.347-.348.34.34 0 00-.347-.348zm.595-1.244c-.149 0-.297.1-.297.298 0 .15.099.299.297.299.149 0 .297-.1.297-.299 0-.149-.148-.298-.297-.298zm-10.51 1.741c.198 0 .396-.199.396-.398s-.198-.398-.396-.398-.397.2-.397.398c0 .249.199.398.397.398zm1.537 9.655c-.198 0-.397.2-.397.398 0 .2.198.398.397.398.198 0 .396-.199.396-.398s-.198-.398-.396-.398zm2.379.398c-.198 0-.396.2-.396.398 0 .2.198.398.396.398.199 0 .397-.199.397-.398s-.198-.398-.397-.398zm-2.032-4.031c-.198 0-.397.2-.397.398 0 .2.199.399.397.399s.396-.2.396-.399-.198-.398-.396-.398zm1.338-2.687c.199 0 .397-.2.397-.398 0-.2-.198-.398-.397-.398-.198 0-.396.198-.396.398 0 .199.148.398.396.398zm-6.197-1.593c.199 0 .397-.199.397-.398s-.198-.398-.396-.398c-.199 0-.397.2-.397.398 0 .2.198.398.396.398zm2.231 7.117c-.198 0-.396.199-.396.398s.198.398.396.398c.199 0 .397-.199.397-.398a.392.392 0 00-.397-.398zm-1.091-5.176c.199 0 .397-.199.397-.398s-.198-.398-.396-.398c-.199 0-.397.2-.397.398 0 .25.149.398.397.398zm-2.528 2.289c-.198 0-.396.2-.396.399s.198.398.396.398c.199 0 .397-.2.397-.398 0-.25-.149-.399-.397-.399zm4.115-.447c.198 0 .397-.2.397-.399 0-.198-.199-.398-.397-.398s-.397.2-.397.398c0 .25.199.399.397.399zm-6.247-3.584c-.198 0-.396.2-.396.398 0 .2.198.399.397.399.198 0 .396-.2.396-.399s-.198-.398-.396-.398zm.843 2.091c-.198 0-.396.199-.396.398s.198.398.396.398c.199 0 .397-.2.397-.398 0-.2-.198-.398-.397-.398zm2.925 3.483c-.198 0-.396.2-.396.398 0 .2.198.398.396.398.199 0 .397-.199.397-.398a.392.392 0 00-.397-.398zm4.065-5.624c.199 0 .397-.199.397-.398s-.198-.398-.397-.398c-.198 0-.396.2-.396.398 0 .2.149.398.396.398zm2.925 4.927c-.198 0-.396.2-.396.398 0 .2.198.398.396.398.199 0 .397-.199.397-.398a.392.392 0 00-.397-.398zm.992-3.283a.427.427 0 00-.397.397c0 .2.199.398.397.398s.396-.199.396-.398-.198-.398-.396-.398zm-.248-3.236c-.198 0-.397.2-.397.398 0 .2.199.398.397.398s.397-.199.397-.398a.392.392 0 00-.397-.398zm1.884.597c-.198 0-.397.2-.397.398 0 .2.199.399.397.399s.397-.2.397-.399c-.05-.248-.199-.398-.397-.398zm-3.322-1.841c-.198 0-.396.2-.396.398 0 .2.198.398.396.398.199 0 .397-.199.397-.398a.392.392 0 00-.397-.398zm-.793-1.493c-.198 0-.396.199-.396.398 0 .2.198.398.396.398s.397-.199.397-.398c0-.249-.149-.398-.397-.398zm1.636 0c-.198 0-.396.199-.396.398 0 .2.198.398.396.398s.397-.199.397-.398c0-.249-.149-.398-.397-.398zm-1.834-1.095c0-.2.149-.348.347-.348a.34.34 0 01.347.348.34.34 0 01-.347.348.34.34 0 01-.347-.348zm.942-1.244c0-.15.099-.249.248-.249.148 0 .248.1.248.249 0 .15-.1.249-.248.249-.1.05-.248-.1-.248-.25zm1.289-.548c0-.099.099-.199.198-.199.1 0 .198.1.198.2 0 .099-.099.199-.198.199-.1 0-.198-.1-.198-.2zm5.453 2.738c0-.1.1-.2.198-.2.1 0 .199.1.199.2s-.1.199-.199.199-.198-.1-.198-.2zm-.297 3.981c0-.1.099-.2.198-.25.1 0 .198.1.248.2 0 .1-.1.199-.199.249-.099 0-.198-.05-.247-.2zm.595-.746c0-.1.099-.2.198-.25.099 0 .198.1.248.2 0 .1-.1.199-.199.249-.148 0-.248-.1-.248-.2zm-1.19 1.492c0-.1.099-.199.198-.248.1 0 .198.099.248.199 0 .1-.1.199-.198.248-.1.05-.199-.05-.248-.199zm-.645.747c0-.1.1-.2.199-.249.099 0 .198.1.248.2 0 .099-.1.198-.199.248-.149 0-.248-.1-.248-.2zM35 17.356c0-.1.1-.199.199-.249.099 0 .198.1.198.2 0 .099-.1.199-.198.248-.1.05-.199-.05-.199-.199zm.397-.646c0-.1.099-.2.198-.25.1 0 .199.1.248.2 0 .1-.1.199-.198.248-.149 0-.248-.1-.248-.199zM10.659 33.53s-1.438-2.538-.447-5.076c1.091-2.837 4.314-2.488 4.314-2.488-.496-.25-1.091-.349-1.686-.349-2.23.1-3.916 2.09-3.817 4.529a4.3 4.3 0 001.636 3.384z" fill="#fff"/><path d="M5.305 25.518a3.388 3.388 0 01-.992-2.439c0-1.89 1.537-3.334 3.42-3.483 1.984-.1 5.553.497 7.834.199.793 3.533 4.313 7.017 7.089 8.56-3.272-1.444-6.445-4.778-9.171-6.32-2.876-1.593-5.751-1.842-7.238-.448-1.29 1.194-1.19 2.886-.942 3.931zm8.08 3.583c.199 1.045-1.685 1.344-1.685 1.344 1.685.298 2.28-.597 2.28-.597l-.595-.747zm13.336.547s-1.09 1.543-.347 4.38c-.446.448-1.289.796-1.933.995 0 0 2.528.349 3.321-1.045-1.537-1.194-1.04-4.13-1.04-4.33zm5.057-16.224c-.992-.199-1.884.349-2.033 1.145-.148.796.546 1.642 1.488 1.792.991.199 1.884-.349 2.032-1.145.149-.796-.496-1.593-1.487-1.792zm1.24 1.742c-.1.597-.744.946-1.438.846-.694-.15-1.19-.697-1.091-1.294.1-.597.744-.945 1.438-.846.694.15 1.19.747 1.09 1.294z" fill="#fff"/><path d="M31.679 14.918c.05-.3.396-.548.793-.448.397.05.645.398.595.696-.05.299-.397.548-.793.448-.397-.05-.645-.348-.595-.697zm-2.033 13.337c.595 1.145-1.338 1.543-1.338 1.543 1.338.249 2.131-.647 2.131-.995-.297-1.245-.644-.299-.793-.548zm4.016-13.935c-.496-.846-1.388-1.443-2.479-1.443-.942 0-1.785.498-2.33 1.194a.423.423 0 01-.645.05c-.198-.15-.198-.448-.05-.647.596-.697 1.488-1.095 2.48-1.095 1.388.05 2.528.846 3.024 1.941zm-3.074 5.873c-.991-.05-2.33-.547-3.52-1.443-1.04-.747-1.785-1.642-2.181-2.489-.1-.149-.05-.348.1-.398.148-.1.346-.05.396.1.446.896 1.09 1.891 2.082 2.687 1.04.846 2.132 1.394 3.123 1.543zM29.25 22.98c-1.835-.1-3.917-1.095-5.553-2.738-.744-.796-1.338-1.642-1.735-2.438-.1-.15-.05-.348.1-.398.148-.1.346-.05.396.1.495.995 1.09 2.09 2.032 3.085 1.488 1.393 3.173 2.24 4.76 2.389zM18.938 18.8c.149-.05.347.05.396.199.794 1.94 1.19 2.737 2.678 4.33 2.032 2.14 4.957 2.936 6.543 2.936-1.388.1-4.759-.498-7.138-2.986-1.339-1.394-2.28-2.837-2.727-4.131 0-.1.1-.249.248-.348z" fill="#fff"/><path d="M29.696 16.46a3.76 3.76 0 001.735.548c1.636.05 2.23-1.244 2.28-1.792 0 .349-.446 2.19-2.478 2.19-.794 0-1.389-.15-1.835-.448-.148-.1-.198-.249-.148-.398.099-.1.297-.2.446-.1z" fill="#fff"/><path d="M46.204 30.644c0 .597-.347 1.095-.843 1.244.546.199.992.697.992 1.344 0 1.144-.793 1.692-2.23 1.692h-2.579v-5.922h2.43c1.388 0 2.23.497 2.23 1.642zm-3.47.796h1.24c.594 0 1.04-.1 1.04-.697 0-.547-.446-.696-1.04-.696h-1.24v1.393zm0 2.488h1.338c.645 0 1.042-.149 1.042-.746 0-.548-.397-.697-1.041-.697h-1.339v1.443zm8.824 1.046l-.495-1.394h-2.529l-.495 1.394h-1.24l2.33-5.972h1.438l2.33 5.972h-1.339zm-.941-2.489l-.843-2.29-.843 2.29h1.686zm7.188 2.489l-3.024-4.032v4.032h-1.19v-5.972h1.09l3.025 3.98v-3.98h1.19v5.972h-1.091zm3.619-2.489v2.489h-1.19v-5.972h1.19v2.388h.595l1.933-2.389h1.488l-2.48 2.887 2.678 3.085H64.1l-2.132-2.488h-.545zm12.84-.497c0 1.791-1.289 3.085-3.123 3.085-1.835 0-3.123-1.294-3.123-3.085 0-1.792 1.288-3.086 3.123-3.086 1.834-.05 3.123 1.294 3.123 3.086zm-5.007 0c0 1.144.793 1.94 1.884 1.94 1.09 0 1.884-.796 1.884-1.94 0-1.145-.794-1.941-1.884-1.941-1.09 0-1.884.746-1.884 1.94zm7.287.547v2.439h-1.19v-5.972h4.363v1.094h-3.172v1.344h2.974v1.095h-2.975zm11.452-2.737l-.842.846a1.868 1.868 0 00-1.438-.647c-1.09 0-1.884.796-1.884 1.99 0 1.245.843 1.991 1.834 1.991.992 0 1.537-.447 1.686-1.294h-1.537v-.995h2.727v.349c0 1.791-1.24 3.085-2.925 3.085-1.636 0-3.124-1.194-3.124-3.085 0-1.792 1.34-3.086 3.124-3.086 1.09-.1 1.884.249 2.38.846zm1.686 5.176v-5.972h4.462v1.094h-3.272v1.294h3.073v1.095h-3.073v1.394h3.272v1.095h-4.462zm11.601-2.986c0 1.791-1.29 3.085-3.124 3.085s-3.123-1.294-3.123-3.085c0-1.792 1.29-3.086 3.123-3.086 1.835-.05 3.124 1.294 3.124 3.086zm-5.008 0c0 1.144.794 1.94 1.884 1.94 1.091 0 1.884-.796 1.884-1.94 0-1.145-.793-1.941-1.884-1.941-1.09-.05-1.884.746-1.884 1.94zm10.808-1.195c0 .946-.645 1.642-1.785 1.742h-.049l1.834 2.389h-1.438l-1.735-2.39h-.347v2.44h-1.19v-5.972h2.529c1.388 0 2.181.646 2.181 1.791zm-3.52.747h1.289c.645 0 .992-.25.992-.747 0-.498-.347-.746-.992-.746h-1.289v1.493zm9.667-1.742l-.842.846a1.869 1.869 0 00-1.438-.647c-1.091 0-1.884.796-1.884 1.99 0 1.245.843 1.991 1.834 1.991.992 0 1.537-.447 1.686-1.294h-1.537v-.995h2.727v.349c0 1.791-1.24 3.085-2.925 3.085-1.636 0-3.123-1.194-3.123-3.085 0-1.792 1.338-3.086 3.123-3.086 1.09-.1 1.884.249 2.379.846zm2.876-.796h-1.19v5.972h1.19v-5.972zm5.602 5.972l-.496-1.394h-2.528l-.496 1.394h-1.24l2.331-5.972h1.437l2.33 5.972h-1.338zm-.942-2.489l-.843-2.29-.892 2.29h1.735zM41.544 20.79v-4.778h1.587v4.728c0 1.344.644 1.941 1.586 1.941.992 0 1.636-.547 1.636-1.443 0-1.045-1.14-1.244-1.14-2.489h1.586c.05.697 1.19.996 1.19 2.688 0 1.592-1.338 2.737-3.272 2.737-1.884-.05-3.173-1.145-3.173-3.384zm7.436 0v-.498h1.587v.448c0 1.344.645 1.941 1.636 1.941.991 0 1.586-.597 1.586-1.543 0-1.841-2.478-2.389-2.478-4.578v-.498h1.586v.398c0 1.742 2.578 1.891 2.578 4.678 0 1.941-1.339 3.086-3.272 3.086-1.933-.1-3.222-1.195-3.222-3.434zm7.486.348v-.498h1.587v.399c0 .995.644 1.592 1.537 1.592.942 0 1.536-.597 1.536-1.94v-1.195c0-1.095-.694-1.443-1.388-1.443-.941 0-1.289.597-1.289 1.194v.15h-1.586v-.15c0-1.493 1.14-2.588 2.578-2.588.545 0 1.289.2 1.685.896v-1.543h1.587v4.778c0 2.24-1.289 3.334-3.173 3.334-1.735 0-3.074-1.095-3.074-2.986zm7.437-.348v-.498h1.586v.448c0 1.344.645 1.941 1.636 1.941.992 0 1.587-.597 1.587-1.543 0-1.841-2.48-2.389-2.48-4.578v-.498h1.587v.398c0 1.742 2.578 1.891 2.578 4.678 0 1.941-1.338 3.086-3.272 3.086-1.933-.1-3.222-1.195-3.222-3.434zm17.004.597v2.638h-1.636v-2.489c0-.896-.397-1.393-1.09-1.393-.645 0-1.19.448-1.19 1.294v1.642h-1.636v-1.642c0-.797-.397-1.294-1.091-1.294-.644 0-1.14.448-1.14 1.393v2.439h-1.636v-3.583c0-3.584 2.578-4.38 4.66-4.38h2.38v1.493h-2.132c-1.735 0-3.124.548-3.322 1.842.347-.399.843-.697 1.438-.697.644 0 1.338.348 1.735 1.244.496-.896 1.24-1.244 2.132-1.244 1.487 0 2.528 1.145 2.528 2.737zm1.14-.597v-1.592c0-2.19 1.29-3.335 3.025-3.335.941 0 1.933.398 2.33 1.394.495-.996 1.288-1.394 2.23-1.394 1.388 0 2.677 1.145 2.677 2.986v5.126h-1.586V18.9c0-.946-.545-1.543-1.289-1.543-.743 0-1.24.597-1.24 1.543v1.891c0 2.19-1.288 3.335-3.073 3.335s-3.074-1.095-3.074-3.335zm4.61-.05v-1.493c0-1.294-.644-1.89-1.486-1.89-.843 0-1.488.596-1.488 1.89v1.493c0 1.344.645 1.941 1.488 1.941.842 0 1.487-.597 1.487-1.94zm7.14.498v-.398h1.586v.299c0 .846.645 1.492 1.686 1.492 1.04 0 1.636-.398 1.636-1.045 0-.696-.645-.945-1.29-.945h-.842v-1.443h.843c.694 0 1.19-.2 1.19-.846 0-.598-.546-1.095-1.537-1.095-1.041 0-1.686.647-1.686 1.393v.2h-1.586v-.3c0-1.542 1.338-2.786 3.321-2.786 1.835 0 3.173 1.144 3.173 2.488 0 .846-.496 1.344-1.24 1.593.893.149 1.389.796 1.389 1.741 0 1.394-1.339 2.439-3.322 2.439-2.032.1-3.321-.995-3.321-2.787zm7.734-.099v-.498h1.586v.498c0 .945.644 1.542 1.537 1.542.942 0 1.537-.597 1.537-1.89v-1.544c0-1.294-.645-1.89-1.537-1.89-.942 0-1.537.596-1.537 1.542v.15h-1.586v-.15c0-1.891 1.288-2.986 3.172-2.986 1.835 0 3.124 1.145 3.124 3.334v1.593c0 2.24-1.289 3.334-3.124 3.334-1.884-.05-3.172-1.144-3.172-3.035zm7.436-1.543V18.6c0-1.592 1.091-2.737 2.528-2.737.694 0 1.636.349 2.033 1.244.396-.895 1.289-1.244 1.933-1.244.595 0 1.488.349 1.835 1.244.446-.895 1.289-1.244 2.082-1.244 1.437 0 2.479 1.145 2.479 2.737v2.09h-1.587V18.6c0-.895-.396-1.393-1.041-1.393-.595 0-1.14.448-1.14 1.294v1.94h-1.587v-1.94c0-.796-.495-1.294-1.09-1.294-.595 0-1.091.448-1.091 1.294v1.94h-1.586v-1.94c0-.796-.397-1.294-1.041-1.294-.595 0-1.091.448-1.091 1.393v.797c0 2.09.892 3.085 3.718 3.085h5.205v1.493h-5.453c-2.28 0-5.106-.796-5.106-4.38zm23.647-.996v5.425h-1.636V18.7c0-.896-.396-1.393-1.09-1.393-.645 0-1.19.447-1.19 1.294v3.334h-1.636V18.6c0-.797-.397-1.294-1.091-1.294-.644 0-1.14.447-1.14 1.393v5.275h-1.636V18.6c0-1.592 1.14-2.737 2.628-2.737.743 0 1.685.349 2.082 1.244.446-.895 1.289-1.244 2.181-1.244 1.537 0 2.528 1.145 2.528 2.738zm1.636 2.19v-4.778h1.587v4.728c0 1.344.644 1.941 1.586 1.941.992 0 1.636-.547 1.636-1.443 0-1.045-1.14-1.244-1.14-2.489h1.586c.05.697 1.19.996 1.19 2.688 0 1.592-1.338 2.737-3.272 2.737-1.884-.05-3.173-1.145-3.173-3.384zm16.757.597c0 1.593-1.289 2.787-3.222 2.787-1.934 0-3.173-1.145-3.173-2.787 0-1.443.991-2.488 2.578-2.737v-.548c0-.846-.992-.846-.992-2.09h1.587c0 .747.991.846.991 1.842v.895c1.388.299 2.231 1.294 2.231 2.638zm-1.636-.05c0-.846-.645-1.393-1.586-1.393-.942 0-1.537.597-1.537 1.393 0 .846.644 1.444 1.537 1.444.941-.05 1.586-.598 1.586-1.444zm2.627-.547v-.498h1.587v.448c0 1.344.644 1.941 1.636 1.941.991 0 1.586-.597 1.586-1.543 0-1.841-2.479-2.389-2.479-4.578v-.498h1.587v.398c0 1.742 2.578 1.891 2.578 4.678 0 1.941-1.339 3.086-3.272 3.086-1.934-.1-3.223-1.195-3.223-3.434zm7.585.597v-3.036c0-1.493 1.389-2.289 2.727-2.289h3.123v1.344h-2.875c-.694 0-1.388.348-1.388 1.095v1.045c.297-.498.892-.896 1.933-.896 1.488 0 2.826 1.095 2.826 2.737 0 1.593-1.338 2.787-3.173 2.787-1.884-.05-3.173-1.194-3.173-2.787zm4.71-.05c0-.796-.644-1.393-1.537-1.393-.942 0-1.586.597-1.586 1.393 0 .846.644 1.444 1.586 1.444.942-.05 1.537-.598 1.537-1.444zm2.628-.149v-.348h1.586v.249c0 .945.644 1.543 1.686 1.543 1.041 0 1.636-.399 1.636-1.294 0-.846-.645-1.195-1.686-1.195h-.694V18.7h.843c.942 0 1.338-.398 1.338-1.244v-1.493h1.587v1.692c0 .846-.496 1.443-1.388 1.742.892.249 1.586.846 1.586 2.14 0 1.443-1.339 2.588-3.322 2.588-1.884 0-3.172-1.095-3.172-2.937zm7.932-2.04c0-2.14 1.289-3.285 3.073-3.285 1.785 0 3.074 1.145 3.074 3.285v4.827h-1.586v-4.827c0-1.244-.645-1.841-1.488-1.841-.842 0-1.487.597-1.487 1.84v4.828h-1.586v-4.827z" fill="#6D6F71"/></svg>