<svg width="32" height="32" fill="none" xmlns="http://www.w3.org/2000/svg"><path d="M26.493 14c-3.033.003-5.498 2.488-5.494 5.539 0 1.667.831 3.567 2.468 5.648a21.594 21.594 0 002.375 2.561 1 1 0 001.328-.001 21.628 21.628 0 002.37-2.566c1.25-1.596 2.46-3.633 2.46-5.653C31.995 16.483 29.549 14 26.492 14zm-1.494 5.501A1.5 1.5 0 0126.497 18c1.334 0 2.002 1.62 1.063 2.56-.935.936-2.561.284-2.561-1.059zM4.837 13.748a1 1 0 001.328 0 21.613 21.613 0 002.373-2.564C10.172 9.101 11 7.201 11 5.534 11.001 2.482 8.534 0 5.501 0c-3.032 0-5.5 2.482-5.5 5.533 0 1.668.829 3.568 2.463 5.651a21.614 21.614 0 002.373 2.564zM5.5 4a1.501 1.501 0 01.001 3c-.827 0-1.5-.673-1.5-1.5S4.674 4 5.501 4z" fill="#3A3A3A"/><path d="M28.008 30.499c0 1.37-1.699 2.025-2.616 1H4.502a4.505 4.505 0 01-4.5-4.5 4.505 4.505 0 014.5-4.499h10.03a2.472 2.472 0 002.47-2.469 2.472 2.472 0 00-2.47-2.468H6.62c-.302.333-.704.5-1.118.5-1.33 0-2.002-1.62-1.062-2.56a1.5 1.5 0 012.18.06h7.913a4.473 4.473 0 014.469 4.468 4.473 4.473 0 01-4.47 4.469H4.503a2.502 2.502 0 00-2.5 2.5c0 1.379 1.12 2.5 2.5 2.5 22.5 0 20.856.03 20.945-.06.937-.939 2.56-.279 2.561 1.059z" fill="#3A3A3A"/></svg>