<svg width="20" height="20" fill="none" xmlns="http://www.w3.org/2000/svg"><path d="M19.877 12.018l-3.534 6.69c-.173.332-.663.684-1.041.684l-14.174.002A1.128 1.128 0 010 18.266L.002 7.26c0-.622.505-1.127 1.127-1.128h1.037v.96h-.694a.512.512 0 00-.512.513L.961 17.92c0 .283.23.512.512.512h.71l3.35-6.775c.19-.379.547-.685.925-.685h8.203l.002-2.727c.536.05.959.494.959 1.043v1.684h3.762c.444.005.818.444.493 1.045zM2.82 15.022c-.03-3.372 0-13.49 0-13.49 0-.511.415-.926.925-.926h7.41c.118 0 .231.05.312.137l2.395 2.603a.426.426 0 01.112.287v6.742h-.777v-6.16a.193.193 0 00-.193-.193H11.17a.39.39 0 01-.389-.389V1.576a.193.193 0 00-.193-.193H3.745a.148.148 0 00-.149.148v12.643l-.594 1.203s-.18-.013-.183-.355zm8.739-11.777h1.154L11.558 1.99v1.255zm.421 1.568H4.82a.478.478 0 000 .957h7.16a.48.48 0 000-.957zm.478 3.263a.479.479 0 00-.478-.478H4.82a.478.478 0 000 .956h7.16a.479.479 0 00.478-.478zM4.34 10.879c0 .264.214.478.478.478h.172c.302-.842 1.051-.955 1.051-.955H4.818a.479.479 0 00-.478.477z" fill="#fff"/></svg>