<svg width="105" height="44" fill="none" xmlns="http://www.w3.org/2000/svg"><path d="M36.736 41.152l-.543.12c-2.172.6-4.344-.36-6.624-2.762l-.651-.72-.109-.12-.326-.36-.543-.6c-.651-.721-1.52-1.682-2.388-2.883-.326-.36-.652-.84-1.086-1.2-.217-.24-.543-.72-.977-1.201-4.344-5.284-17.7-21.013-17.7-21.013-.325-.36-.65-.72-.868-1.081C3.075 6.81 2.424 4.529 3.075 2.248l.109-.48L1.99.926l-.326.6c-.109.36-.326.6-.435.96a6.306 6.306 0 00-.434 1.322c0 .36-.108.72-.108.96A7.319 7.319 0 00.795 7.41c.109.48.217.96.434 1.56.109.361.326.721.435 1.201.543 1.081 1.194 2.282 2.171 3.363.109.12.543.72 1.412 1.68.543.721 1.303 1.562 2.063 2.522 6.08 7.205 17.916 21.374 18.242 21.734l.76.84c.868.961 1.737 1.681 2.606 2.162h.108c2.063 1.32 4.126 1.56 6.19.96.434-.12.868-.36 1.411-.6l.434-.24-.325-1.441z" fill="url(#paint0_linear)"/><path d="M23.38 13.414c0 .6.109 1.321.109 2.041v13.689c.325.48.651.84.977 1.2l1.086 1.322V15.455c0-.84.108-1.44.108-2.04 0-.601.109-1.081.109-1.442.108-.36.108-.72.217-.96v-.12h-3.04v.12c.108.24.108.6.217.96.108.36.108.84.217 1.441zM7.527 35.508c0-.6-.108-1.321-.108-2.041V20.018c-.326-.36-.652-.84-.978-1.2 0 0-.542-.601-1.085-1.321v15.849c0 .841-.109 1.441-.109 2.042 0 .6-.109 1.08-.109 1.44-.108.36-.108.721-.217.961v.12h3.04v-.12c-.108-.24-.108-.6-.217-.96a4.727 4.727 0 01-.217-1.321zm47.124 2.402v-.72c0-.361 0-.841-.108-1.322-.109-.48-.326-1.08-.543-1.8l-2.063-5.164H41.079l-1.955 5.043c-.217.48-.325.96-.543 1.561-.217.6-.325 1.08-.325 1.681v.36c0 .12 0 .12.108.24v.12H34.89v-.12c.217-.24.434-.72.76-1.32.325-.6.651-1.321.977-2.282l9.772-24.015h1.412l9.338 23.175c.217.6.434 1.08.651 1.56.218.481.435.961.652 1.322.217.36.434.72.543.96.108.24.217.48.326.48v.12h-4.67v.12zM43.576 27.343h7.71l-4.778-12.007-4.67 12.127h1.738v-.12zm26.386-16.45v.72c0 .36 0 .84.108 1.32.109.481.326 1.082.543 1.802l7.6 18.852 7.276-18.732c.217-.48.325-.96.543-1.56.217-.601.325-1.082.325-1.682v-.36c0-.12 0-.24-.108-.24v-.12h3.474v.12c-.217.24-.434.72-.76 1.32-.325.6-.651 1.321-.977 2.282L78.214 38.63h-1.412l-9.23-23.055c-.216-.6-.434-1.08-.65-1.56-.218-.48-.435-.961-.652-1.321-.217-.36-.434-.72-.543-1.081-.109-.24-.217-.48-.326-.48v-.12h4.56v-.12zm30.402 27.017c.109-.24.109-.6.218-.961.108-.36.108-.84.108-1.441 0-.6.109-1.32.109-2.041V15.455c0-.84-.109-1.44-.109-2.04 0-.601-.108-1.081-.108-1.442-.109-.36-.109-.72-.218-.96v-.12h4.126v.12c-.108.24-.108.6-.217.96-.108.36-.108.84-.108 1.441 0 .6-.109 1.321-.109 2.041v17.772c0 .84.109 1.44.109 2.04 0 .601.108 1.081.108 1.442.109.36.109.72.217.96v.12l-4.126.12z" fill="#fff"/><defs><linearGradient id="paint0_linear" x1="18.878" y1="43.797" x2="18.878" y2=".962" gradientUnits="userSpaceOnUse"><stop stop-color="#DEB962"/><stop offset=".228" stop-color="#D3AC5C"/><stop offset=".414" stop-color="#BC852C"/><stop offset=".586" stop-color="#D89E48"/><stop offset=".772" stop-color="#D9A72A"/><stop offset="1" stop-color="#BB8E2D"/></linearGradient></defs></svg>