<svg width="212" height="192" fill="none" xmlns="http://www.w3.org/2000/svg"><path d="M2.91 25.985L33.975 54.12l20.334-4.936 5.45-18.416L28.692 2.634C44.588-2.83 63.227.2 76.03 11.792c13.079 11.845 16.32 29.22 9.737 43.813l77.741 70.41c12.834-3.65 27.415-.891 37.587 8.321 10.721 9.71 13.523 23.846 8.468 35.902l-26.016-23.562-17.03 4.134-4.564 15.424 26.015 23.561c-13.31 4.576-28.919 2.038-39.64-7.669-10.172-9.212-13.219-22.414-9.188-34.041l-77.744-70.41c-16.114 5.964-35.3 3.026-48.378-8.819C.221 57.261-3.127 40.38 2.91 25.986zm154.892 50.672L134.65 55.69l8.473-28.642 31.627-7.675 23.152 20.968-8.473 28.643-31.627 7.674zm18.452-37.68c-5.51-4.989-14.444-4.989-19.95 0-5.51 4.99-5.51 13.082 0 18.072 5.509 4.99 14.443 4.99 19.953 0 5.507-4.99 5.507-13.081-.003-18.071zm-93.416 95.458v29.654l-28.355 14.826-28.354-14.826v-29.654l28.354-14.826 28.355 14.826zm-42.465 14.828c0 7.057 6.316 12.776 14.107 12.776 7.792 0 14.107-5.72 14.107-12.776 0-7.057-6.316-12.776-14.107-12.776-7.792-.003-14.107 5.719-14.107 12.776z" fill="#fff"/></svg>