<svg width="212" height="192" fill="none" xmlns="http://www.w3.org/2000/svg"><path d="M46.986 145.118L160.234 42.553c4.556-4.126 4.556-10.818 0-14.946l-10.23-9.266-6.601-5.978-10.234-9.269c-4.555-4.125-11.945-4.125-16.503 0L3.416 105.66c-4.555 4.125-4.555 10.817 0 14.946l27.066 24.512c4.559 4.126 11.944 4.126 16.504 0zM157.735 11.334l-6.601-5.978-4.2 3.804 6.6 5.978 4.201-3.804zm49.581 155.941l-54.262-49.143-22.616 20.483 54.262 49.143c6.245 5.656 16.371 5.656 22.616 0 6.245-5.656 6.245-14.827 0-20.483z" fill="#fff"/><path d="M138.301 119.276l-9.369-8.486c-6.987-6.327-20.075-4.773-29.174 3.468l-53.045 48.044c-5.46 4.945-14.342 4.945-19.803 0l-8.029-7.272c-4.715-4.271-5.337-10.846-1.907-15.746l-6.696-6.064c-7.014 8.28-6.361 20.214 2.002 27.791l8.03 7.272c9.099 8.241 23.904 8.241 33.003 0l53.045-48.041c5.834-5.284 13.101-6.069 15.973-3.468l9.369 8.485 6.601-5.983z" fill="#fff"/></svg>