<svg width="32" height="32" fill="none" xmlns="http://www.w3.org/2000/svg"><path d="M23.448 12.138a3.862 3.862 0 100-7.724 3.862 3.862 0 000 7.724zM24 16v-1.104a.552.552 0 10-1.103 0V16A.552.552 0 1024 16zM22.897.552v1.103a.552.552 0 101.103 0V.552a.552.552 0 10-1.103 0zm8.827 7.724a.552.552 0 00-.552-.552H30.07a.552.552 0 000 1.104h1.104a.552.552 0 00.551-.552zm-16 .552h1.104a.552.552 0 000-1.104h-1.104a.552.552 0 100 1.104zM29.3 2.424a.552.552 0 00-.78 0l-.78.78a.552.552 0 10.78.78l.78-.78a.552.552 0 000-.78zM17.597 14.127a.552.552 0 00.78 0l.78-.78a.552.552 0 00-.78-.78l-.78.78a.552.552 0 000 .78zm10.923-1.56a.552.552 0 00-.78.78l.78.78a.552.552 0 00.78-.78l-.78-.78zM17.597 2.424a.552.552 0 000 .78l.78.78a.552.552 0 10.78-.78l-.78-.78a.552.552 0 00-.78 0zM6.897 32a.552.552 0 00.551-.552V28.69H5.793v2.76c0 .304.247.55.552.55h.552zm.347-17.338c.168.014.335.045.497.093a2.753 2.753 0 10-3.542-3.133l3.045 3.04zm23.928 12.372v-1.103a.552.552 0 00-.551-.552H11.995a.557.557 0 01-.39-.162l-9.446-9.445a1.139 1.139 0 00-1.56 0c-.43.43-.43 1.129 0 1.56l7.106 7.105 3.15 3.15H30.62a.552.552 0 00.551-.553zm-21.878.552L7.087 25.38h-3.5a1.103 1.103 0 100 2.207h5.707zM27.31 32a1.655 1.655 0 100-3.31 1.655 1.655 0 000 3.31z" fill="#3A3A3A"/><path d="M3.17 12.15l-.24-.236a1.126 1.126 0 00-1.567 0 1.103 1.103 0 00.004 1.556l1.313 1.313c.092.063.179.133.259.21l3.08 3.08a.547.547 0 01.05.038c.005.005.01.006.015.01l4.657 4.653 2.228-1.67-.79-.79-.01.007a.552.552 0 01-.756-.773l-2.214-2.213-.34.228a.552.552 0 11-.614-.917l.159-.106-.386-.386a1.38 1.38 0 00-.979-.407c-.007 0-.014-.004-.022-.005-.007 0-.014.005-.022.005a.551.551 0 01-.39-.161l-3.393-3.388a.505.505 0 01-.041-.048zm8.361 11.411l.717.717h4.404l1.905-1.907-1.172-1.172-.6.6a2.202 2.202 0 01-3.012.088L11.53 23.56zm9.159-1.771l-2.482 2.486h4.963l-2.481-2.485z" fill="#3A3A3A"/><path d="M25.026 24.276h.032a.807.807 0 00.773-.49.816.816 0 00-.17-.924l-3.802-3.802a1.659 1.659 0 00-2.343 0l-1.356 1.356 1.17 1.171.967-.968a.551.551 0 01.781 0l3.37 3.377a.92.92 0 00.578.28z" fill="#3A3A3A"/></svg>