<svg width="74" height="72" fill="none" xmlns="http://www.w3.org/2000/svg"><g clip-path="url(#clip0)"><path d="M56.32 38.13c0 4.64-1.884 9.07-5.041 12.488-2.806.38-5.743-.211-8.199-1.772-1.972-1.266-4.252-1.94-6.488-1.94-2.324 0-4.647.632-6.664 1.94-2.411 1.519-5.26 2.11-8.023 1.814-3.157-3.46-5.042-7.889-5.042-12.53 0-10.462 8.857-18.984 19.729-18.984s19.729 8.522 19.729 18.984z" fill="#FEDB41"/><path d="M56.32 38.13c0 4.64-1.884 9.07-5.041 12.488-2.806.38-5.743-.211-8.199-1.772-1.972-1.266-4.252-1.94-6.488-1.94v-27.76c10.873 0 19.729 8.522 19.729 18.984z" fill="#FCBF29"/><path d="M38.755 4.38v8.438c0 1.181-.935 2.11-2.162 2.11-1.228 0-2.192-.929-2.192-2.11V4.381c0-1.182.964-2.11 2.192-2.11 1.227 0 2.162.928 2.162 2.11zM16.444 21.723l-6.203-5.965a2.053 2.053 0 010-2.983 2.253 2.253 0 013.1 0l6.203 5.965a2.053 2.053 0 010 2.983 2.252 2.252 0 01-3.1 0z" fill="#FEA832"/><path d="M53.64 21.723a2.053 2.053 0 010-2.983l6.205-5.965a2.253 2.253 0 013.1 0c.855.824.855 2.16 0 2.982l-6.204 5.966a2.252 2.252 0 01-3.1 0zm-7.624-4.95c-1.113-.455-1.635-1.693-1.16-2.766l1.712-3.883c.471-1.074 1.769-1.57 2.873-1.119 1.113.455 1.636 1.693 1.16 2.767l-1.712 3.883c-.471 1.077-1.768 1.568-2.873 1.118z" fill="#FE9923"/><path d="M24.295 15.655l-1.712-3.883c-.475-1.074.047-2.312 1.16-2.767 1.109-.451 2.402.045 2.873 1.119l1.712 3.883c.476 1.073-.047 2.31-1.16 2.766-1.105.45-2.402-.04-2.873-1.118zM10.287 40.24H1.373c-1.212 0-2.192-.944-2.192-2.11 0-1.165.98-2.109 2.192-2.109h8.914c1.212 0 2.192.944 2.192 2.11 0 1.165-.98 2.109-2.192 2.109z" fill="#FEA832"/><path d="M71.808 40.24h-8.914c-1.212 0-2.192-.944-2.192-2.11 0-1.165.98-2.109 2.192-2.109h8.914c1.212 0 2.192.944 2.192 2.11 0 1.165-.98 2.109-2.192 2.109zM58.95 29.44c-.454-1.082.09-2.312 1.212-2.746l4.063-1.58c1.117-.441 2.397.084 2.855 1.164.454 1.081-.09 2.311-1.211 2.745l-4.063 1.58c-1.124.438-2.4-.087-2.856-1.163z" fill="#FE9923"/><path d="M11.38 30.604l-4.063-1.58c-1.122-.435-1.666-1.665-1.212-2.746.454-1.08 1.734-1.603 2.856-1.164l4.063 1.58c1.122.435 1.665 1.664 1.212 2.746-.456 1.076-1.732 1.601-2.856 1.163z" fill="#FEA832"/><path d="M73.852 67.62c-.438 1.096-1.71 1.602-2.85 1.18a12.466 12.466 0 01-2.718-1.35c-3.244-2.067-7.623-2.067-10.867 0a14.447 14.447 0 01-7.804 2.279 14.42 14.42 0 01-7.76-2.278c-1.578-1.055-3.464-1.561-5.26-1.561-1.93 0-3.815.506-5.481 1.56a14.43 14.43 0 01-15.564 0c-3.244-2.067-7.642-2.067-10.887 0a14.88 14.88 0 01-2.455 1.266c-1.096.465-2.411-.084-2.85-1.139-.482-1.097.045-2.32 1.185-2.742a16.38 16.38 0 001.709-.886c4.735-3.038 10.975-3.038 15.71 0 3.244 2.067 7.496 2.067 10.74 0a14.741 14.741 0 017.892-2.278c2.63 0 5.349.76 7.672 2.278 3.245 2.067 7.497 2.067 10.741 0 4.735-3.038 10.955-3.038 15.69 0 .614.38 1.228.675 1.885.928 1.14.422 1.71 1.645 1.272 2.742z" fill="#1DE8F1"/><path d="M73.852 59.182c-.438 1.097-1.71 1.603-2.85 1.181a12.461 12.461 0 01-2.718-1.35c-3.244-2.067-7.623-2.067-10.867 0a14.446 14.446 0 01-7.804 2.278 14.42 14.42 0 01-7.76-2.278c-1.578-1.054-3.464-1.56-5.26-1.56-1.93 0-3.815.506-5.481 1.56a14.43 14.43 0 01-15.564 0c-3.244-2.067-7.642-2.067-10.887 0-.789.507-1.622.928-2.455 1.266-1.096.464-2.411-.085-2.85-1.14-.482-1.096.045-2.32 1.185-2.742.569-.253 1.14-.548 1.709-.885 4.735-3.038 10.975-3.038 15.71 0 3.244 2.067 7.496 2.067 10.74 0a14.74 14.74 0 017.892-2.279c2.63 0 5.349.76 7.672 2.279 3.245 2.067 7.497 2.067 10.741 0 4.735-3.038 10.955-3.038 15.69 0 .614.38 1.228.675 1.885.928 1.14.422 1.71 1.645 1.272 2.742z" fill="#1DE8F1"/><path d="M73.852 50.745c-.438 1.096-1.71 1.603-2.85 1.18a12.317 12.317 0 01-2.698-1.35c-3.244-2.067-7.643-2.067-10.887 0a14.446 14.446 0 01-7.804 2.279 14.42 14.42 0 01-7.76-2.278c-1.578-1.055-3.464-1.561-5.26-1.561-1.93 0-3.815.506-5.481 1.56a14.43 14.43 0 01-15.564 0c-3.244-2.067-7.642-2.067-10.887 0a14.98 14.98 0 01-2.455 1.267c-1.096.464-2.411-.085-2.85-1.14-.482-1.097.045-2.32 1.185-2.742a16.38 16.38 0 001.709-.886c4.735-3.038 10.975-3.038 15.71 0 3.244 2.067 7.496 2.067 10.74 0a14.74 14.74 0 017.892-2.278c2.63 0 5.349.76 7.672 2.278 3.245 2.067 7.497 2.067 10.741 0 4.735-3.038 10.955-3.038 15.69 0 .614.38 1.228.675 1.885.928 1.14.422 1.71 1.646 1.272 2.742z" fill="#1DE8F1"/><path d="M73.852 67.62c-.439 1.096-1.71 1.602-2.85 1.18a12.467 12.467 0 01-2.718-1.35c-3.244-2.067-7.623-2.067-10.867 0a14.446 14.446 0 01-7.804 2.279c-2.675 0-5.392-.76-7.76-2.278-1.578-1.055-3.464-1.561-5.261-1.561v-4.22c2.63 0 5.349.76 7.672 2.28 3.244 2.066 7.497 2.066 10.741 0 4.735-3.039 10.955-3.039 15.69 0 .614.379 1.228.674 1.885.927 1.14.422 1.71 1.645 1.272 2.742z" fill="#1BD9DE"/><path d="M73.852 59.182c-.439 1.097-1.71 1.603-2.85 1.181a12.463 12.463 0 01-2.718-1.35c-3.244-2.067-7.623-2.067-10.867 0a14.445 14.445 0 01-7.804 2.278c-2.675 0-5.392-.76-7.76-2.278-1.578-1.054-3.464-1.56-5.261-1.56v-4.22c2.63 0 5.349.76 7.672 2.279 3.244 2.067 7.497 2.067 10.741 0 4.735-3.038 10.955-3.038 15.69 0 .614.38 1.228.675 1.885.928 1.14.422 1.71 1.645 1.272 2.742z" fill="#1BD9DE"/><path d="M41.854 50.576c-1.578-1.055-3.464-1.561-5.261-1.561v-4.22c2.63 0 5.348.76 7.672 2.28 3.244 2.066 7.497 2.066 10.741 0 4.735-3.039 10.955-3.039 15.69 0 .614.379 1.228.674 1.885.927 1.14.422 1.71 1.645 1.272 2.742-.439 1.097-1.71 1.604-2.85 1.182a12.313 12.313 0 01-2.698-1.35c-3.245-2.068-7.643-2.068-10.888 0a14.446 14.446 0 01-7.803 2.278c-2.674 0-5.393-.76-7.76-2.278z" fill="#1BD9DE"/><path d="M36.592 14.927V2.271c1.228 0 2.163.928 2.163 2.11v8.437c0 1.181-.935 2.11-2.163 2.11z" fill="#FE9923"/></g><defs><clipPath id="clip0"><path fill="#fff" d="M0 0h74v72H0z"/></clipPath></defs></svg>