<svg width="32" height="32" fill="none" xmlns="http://www.w3.org/2000/svg"><path d="M7.563 24.5c4.135 0 7.5-3.847 7.5-8.5 0-3.667-2.093-5.795-2.2-5.984.054-.297.325-1.203.325-2.454C13.188 3.428 10.663 0 7.561 0 4.462 0 1.875 3.427 1.875 7.563c0 1.249.272 2.165.324 2.453C2.093 10.204 0 12.266 0 16c0 4.653 3.427 8.5 7.563 8.5zM.938 32h30.125a.937.937 0 100-1.875h-.938V28.25h.938a.937.937 0 100-1.875h-.938v-2.813a.937.937 0 00-.938-.937H23.5a.937.937 0 00-.938.938v2.812h-.937a.937.937 0 100 1.875h.938v1.875h-3.75v-3.958a8.287 8.287 0 01-3.75-.015v3.973H9.436v-3.958a8.563 8.563 0 01-3.75 0v3.958H.938a.937.937 0 100 1.875zm23.5-3.75h3.812v1.875h-3.813V28.25z" fill="#3A3A3A"/><path d="M14.875 9.57c1.696 2.408 2.063 4.79 2.063 6.43 0 3.038-1.208 5.827-3.114 7.716.951.491 2 .784 3.114.784 4.135 0 7.5-3.847 7.5-8.5 0-3.734-2.094-5.796-2.2-5.984.053-.288.325-1.204.325-2.454C22.563 3.428 20.038 0 16.938 0c-1.342 0-2.559.655-3.527 1.704 1.018 1.6 1.652 3.66 1.652 5.859 0 .809-.094 1.498-.188 2.007z" fill="#3A3A3A"/></svg>