<svg width="110" height="104" viewBox="0 0 110 104" fill="none" xmlns="http://www.w3.org/2000/svg">
<style
  type="text/css"
  id="style5">
  .area {
    fill-opacity: 0.5;
    cursor: pointer;
    transition: .3s;
  }
  .area:hover {
    fill: #F89D19;
    fill-opacity: 1;
  }
</style>
<path d="M101 52C101 75.6871 80.4683 95 55 95C29.5317 95 9 75.6871 9 52C9 28.3129 29.5317 9 55 9C80.4683 9 101 28.3129 101 52Z" stroke="#F89D19" stroke-width="2"/>
<path d="M109.91 48.998C109.95 49.6607 109.977 50.3267 109.99 50.9958L109.49 51.0058C109.497 51.3364 109.5 51.6678 109.5 52C109.5 52.3322 109.497 52.6636 109.49 52.9942L109.99 53.0042C109.977 53.6733 109.95 54.3393 109.91 55.002L109.411 54.972C109.371 55.6337 109.318 56.292 109.252 56.9468L109.749 56.997C109.682 57.6634 109.602 58.3261 109.508 58.985L109.013 58.9147C108.92 59.5704 108.814 60.2222 108.695 60.8698L109.187 60.9602C109.066 61.6177 108.932 62.271 108.785 62.9198L108.298 62.8096C108.152 63.455 107.993 64.0959 107.822 64.7321L108.305 64.862C108.131 65.5077 107.944 66.1487 107.745 66.7845L107.268 66.6351C107.07 67.2664 106.86 67.8926 106.638 68.5135L107.109 68.682C106.884 69.3108 106.646 69.9342 106.396 70.552L105.933 70.3647C105.685 70.9775 105.426 71.5848 105.154 72.1861L105.61 72.3918C105.335 73.0004 105.049 73.6031 104.75 74.1995L104.303 73.9758C104.008 74.5669 103.7 75.1519 103.382 75.7304L103.82 75.9715C103.498 76.5561 103.165 77.1342 102.821 77.7055L102.393 77.4474C102.052 78.0132 101.7 78.5724 101.337 79.1246L101.755 79.3991C101.388 79.9567 101.011 80.5072 100.624 81.0504L100.217 80.7599C99.8328 81.2975 99.4387 81.8279 99.0344 82.3508L99.4299 82.6567C99.022 83.1841 98.6039 83.7041 98.1759 84.2162L97.7922 83.8955C97.3687 84.4022 96.9353 84.9012 96.4923 85.3923L96.8635 85.7272C96.4169 86.2223 95.9606 86.7093 95.495 87.188L95.1366 86.8394C94.6762 87.3128 94.2065 87.778 93.7278 88.2348L94.073 88.5965C93.591 89.0565 93.0999 89.5081 92.6001 89.9509L92.2686 89.5767C91.7744 90.0145 91.2716 90.4436 90.7605 90.864L91.0781 91.2502C90.5634 91.6735 90.0403 92.0878 89.509 92.493L89.2058 92.0955C88.6806 92.496 88.1475 92.8875 87.6066 93.2698L87.8951 93.6781C87.3513 94.0624 86.7998 94.4374 86.2407 94.8028L85.9671 94.3843C85.4147 94.7454 84.8549 95.097 84.288 95.4391L84.5463 95.8672C83.976 96.2113 83.3986 96.5457 82.8142 96.8702L82.5715 96.433C81.9942 96.7536 81.4102 97.0644 80.8196 97.3652L81.0465 97.8107C80.4533 98.1128 79.8536 98.4049 79.2476 98.6868L79.0367 98.2334C78.4387 98.5116 77.8345 98.7797 77.2243 99.0375L77.4189 99.4981C76.8057 99.7572 76.1866 100.006 75.5618 100.244L75.3836 99.7771C74.7669 100.012 74.1445 100.237 73.5168 100.451L73.6783 100.925C73.0486 101.14 72.4136 101.344 71.7735 101.537L71.6288 101.059C70.9979 101.25 70.3619 101.43 69.7212 101.599L69.8491 102.083C69.2058 102.253 68.5579 102.412 67.9054 102.561L67.7945 102.073C67.151 102.219 66.503 102.355 65.8508 102.479L65.9445 102.97C65.2917 103.095 64.6348 103.209 63.9738 103.311L63.8972 102.817C63.2462 102.918 62.5913 103.008 61.9327 103.087L61.9923 103.584C61.3319 103.663 60.6679 103.731 60.0004 103.788L59.958 103.29C59.3008 103.346 58.6402 103.391 57.9765 103.425L58.0019 103.924C57.3391 103.958 56.6732 103.98 56.0044 103.992L55.996 103.492C55.6647 103.497 55.3327 103.5 55 103.5C54.6673 103.5 54.3353 103.497 54.004 103.492L53.9956 103.992C53.3268 103.98 52.6609 103.958 51.9981 103.924L52.0235 103.425C51.3598 103.391 50.6992 103.346 50.042 103.29L49.9996 103.788C49.3321 103.731 48.6681 103.663 48.0077 103.584L48.0673 103.087C47.4087 103.008 46.7538 102.918 46.1028 102.817L46.0262 103.311C45.3652 103.209 44.7083 103.095 44.0555 102.97L44.1492 102.479C43.497 102.355 42.849 102.219 42.2055 102.073L42.0946 102.561C41.4421 102.412 40.7942 102.253 40.151 102.083L40.2788 101.599C39.6381 101.43 39.0021 101.25 38.3712 101.059L38.2265 101.537C37.5864 101.344 36.9514 101.14 36.3217 100.925L36.4832 100.451C35.8555 100.237 35.2331 100.012 34.6164 99.7771L34.4382 100.244C33.8134 100.006 33.1943 99.7572 32.5811 99.4981L32.7757 99.0376C32.1655 98.7797 31.5613 98.5116 30.9633 98.2334L30.7524 98.6868C30.1464 98.4049 29.5467 98.1128 28.9535 97.8107L29.1804 97.3652C28.5898 97.0644 28.0058 96.7536 27.4285 96.433L27.1858 96.8702C26.6014 96.5457 26.024 96.2113 25.4537 95.8672L25.712 95.4391C25.1451 95.097 24.5853 94.7454 24.0329 94.3843L23.7593 94.8028C23.2003 94.4374 22.6487 94.0624 22.1049 93.6781L22.3934 93.2698C21.8525 92.8875 21.3193 92.496 20.7942 92.0955L20.491 92.493C19.9598 92.0878 19.4366 91.6735 18.9219 91.2502L19.2395 90.864C18.7284 90.4436 18.2256 90.0145 17.7314 89.5767L17.3999 89.9509C16.9001 89.5081 16.409 89.0565 15.927 88.5965L16.2722 88.2348C15.7935 87.778 15.3238 87.3128 14.8634 86.8394L14.505 87.188C14.0394 86.7093 13.5831 86.2223 13.1365 85.7272L13.5077 85.3923C13.0647 84.9012 12.6313 84.4022 12.2078 83.8955L11.8241 84.2162C11.3961 83.704 10.978 83.1841 10.5701 82.6567L10.9656 82.3508C10.5613 81.8279 10.1672 81.2975 9.78346 80.7599L9.37649 81.0504C8.98878 80.5072 8.61165 79.9567 8.24535 79.3991L8.66324 79.1246C8.30045 78.5724 7.94842 78.0132 7.60742 77.4474L7.17917 77.7055C6.83488 77.1342 6.50171 76.5561 6.17994 75.9715L6.61797 75.7304C6.29953 75.1519 5.99238 74.5669 5.69679 73.9758L5.24958 74.1995C4.95134 73.6031 4.66474 73.0004 4.39007 72.3918L4.8458 72.1862C4.57438 71.5848 4.31472 70.9775 4.0671 70.3647L3.60352 70.552C3.35391 69.9342 3.11641 69.3108 2.89129 68.682L3.36203 68.5135C3.13973 67.8926 2.92962 67.2664 2.73198 66.6351L2.25482 66.7845C2.05574 66.1487 1.86917 65.5078 1.69539 64.862L2.17821 64.7321C2.007 64.0959 1.84833 63.455 1.70245 62.8096L1.21475 62.9199C1.0681 62.271 0.934241 61.6177 0.813449 60.9602L1.30522 60.8698C1.18625 60.2222 1.08008 59.5704 0.986968 58.9147L0.491934 58.985C0.398377 58.3261 0.31787 57.6634 0.250666 56.997L0.748143 56.9468C0.682114 56.292 0.629057 55.6337 0.589219 54.972L0.090123 55.002C0.050227 54.3393 0.0234559 53.6733 0.0100514 53.0042L0.509951 52.9942C0.503327 52.6636 0.5 52.3322 0.5 52C0.5 51.6678 0.503327 51.3364 0.509951 51.0058L0.0100513 50.9958C0.0234556 50.3267 0.0502266 49.6607 0.0901223 48.998L0.589219 49.0281C0.629056 48.3663 0.682113 47.708 0.748141 47.0532L0.250664 47.0031C0.317868 46.3366 0.398375 45.6739 0.491932 45.015L0.986966 45.0853C1.08008 44.4296 1.18625 43.7778 1.30522 43.1302L0.813446 43.0399C0.934238 42.3823 1.06809 41.729 1.21475 41.0802L1.70245 41.1904C1.84832 40.545 2.007 39.9041 2.17821 39.2679L1.69538 39.138C1.86917 38.4923 2.05573 37.8513 2.25481 37.2155L2.73197 37.3649C2.92961 36.7336 3.13972 36.1074 3.36202 35.4865L2.89128 35.318C3.11641 34.6892 3.35391 34.0658 3.60351 33.448L4.0671 33.6353C4.31472 33.0225 4.57437 32.4152 4.84579 31.8139L4.39006 31.6082C4.66474 30.9996 4.95133 30.397 5.24958 29.8005L5.69678 30.0242C5.99237 29.4331 6.29952 28.8481 6.61797 28.2696L6.17994 28.0285C6.50171 27.4439 6.83488 26.8658 7.17917 26.2945L7.60741 26.5526C7.94841 25.9868 8.30045 25.4276 8.66323 24.8754L8.24535 24.6009C8.61164 24.0433 8.98878 23.4928 9.37648 22.9496L9.78346 23.2401C10.1671 22.7025 10.5613 22.1721 10.9656 21.6492L10.5701 21.3433C10.978 20.8159 11.3961 20.2959 11.8241 19.7838L12.2078 20.1045C12.6313 19.5978 13.0647 19.0988 13.5077 18.6077L13.1365 18.2728C13.5831 17.7777 14.0394 17.2907 14.505 16.812L14.8634 17.1606C15.3238 16.6872 15.7935 16.222 16.2722 15.7652L15.927 15.4035C16.409 14.9435 16.9001 14.4919 17.3999 14.0491L17.7314 14.4233C18.2256 13.9856 18.7284 13.5564 19.2395 13.136L18.9219 12.7498C19.4366 12.3265 19.9597 11.9122 20.491 11.507L20.7942 11.9045C21.3193 11.504 21.8525 11.1125 22.3934 10.7302L22.1049 10.3219C22.6487 9.93762 23.2002 9.56263 23.7593 9.19718L24.0329 9.6157C24.5853 9.25464 25.145 8.90296 25.712 8.56092L25.4537 8.13281C26.024 7.78873 26.6014 7.45433 27.1858 7.12984L27.4285 7.56696C28.0058 7.24642 28.5898 6.93564 29.1804 6.63485L28.9535 6.18931C29.5467 5.88719 30.1464 5.59508 30.7524 5.3132L30.9633 5.76656C31.5613 5.48839 32.1655 5.22028 32.7757 4.96245L32.5811 4.50188C33.1943 4.24278 33.8134 3.99398 34.4382 3.75571L34.6164 4.2229C35.2331 3.9877 35.8555 3.76287 36.4832 3.54861L36.3217 3.07541C36.9514 2.86049 37.5864 2.65613 38.2265 2.46255L38.3712 2.94114C39.0021 2.75033 39.6381 2.57009 40.2788 2.40063L40.1509 1.91725C40.7942 1.74714 41.4421 1.58781 42.0946 1.43947L42.2055 1.92703C42.849 1.78072 43.497 1.64521 44.1492 1.5207L44.0555 1.02957C44.7083 0.904954 45.3652 0.791267 46.0262 0.68872L46.1028 1.18281C46.7538 1.0818 47.4087 0.991697 48.0673 0.912695L48.0077 0.416254C48.6681 0.337038 49.3321 0.268893 49.9996 0.212022L50.042 0.710216C50.6992 0.65422 51.3598 0.609246 52.0235 0.575493L51.9981 0.0761378C52.6609 0.0424328 53.3268 0.0198216 53.9956 0.00849729L54.004 0.508426C54.3353 0.502817 54.6673 0.5 55 0.5C55.3327 0.5 55.6647 0.502817 55.996 0.508426L56.0044 0.00849749C56.6732 0.0198219 57.3391 0.0424332 58.0019 0.0761382L57.9765 0.575493C58.6402 0.609247 59.3008 0.654221 59.958 0.710217L60.0004 0.212022C60.6679 0.268894 61.3319 0.337039 61.9923 0.416255L61.9327 0.912696C62.5913 0.991697 63.2462 1.0818 63.8972 1.18281L63.9738 0.68872C64.6348 0.791267 65.2917 0.904953 65.9445 1.02957L65.8508 1.5207C66.503 1.64521 67.151 1.78072 67.7945 1.92703L67.9054 1.43947C68.5579 1.5878 69.2058 1.74714 69.849 1.91725L69.7212 2.40063C70.3619 2.57009 70.9979 2.75033 71.6288 2.94114L71.7735 2.46254C72.4136 2.65613 73.0486 2.86049 73.6783 3.07541L73.5168 3.54861C74.1445 3.76286 74.7669 3.9877 75.3836 4.22289L75.5618 3.75571C76.1866 3.99397 76.8057 4.24277 77.4189 4.50188L77.2243 4.96245C77.8345 5.22028 78.4387 5.48839 79.0367 5.76656L79.2476 5.3132C79.8536 5.59508 80.4533 5.88719 81.0465 6.1893L80.8196 6.63485C81.4102 6.93564 81.9942 7.24642 82.5715 7.56696L82.8142 7.12984C83.3986 7.45433 83.976 7.78873 84.5463 8.1328L84.288 8.56092C84.8549 8.90296 85.4147 9.25463 85.9671 9.6157L86.2407 9.19718C86.7998 9.56263 87.3513 9.93762 87.8951 10.3219L87.6066 10.7302C88.1475 11.1125 88.6806 11.504 89.2058 11.9045L89.509 11.507C90.0403 11.9122 90.5634 12.3265 91.0781 12.7498L90.7605 13.136C91.2716 13.5563 91.7744 13.9855 92.2686 14.4233L92.6001 14.0491C93.0999 14.4919 93.591 14.9435 94.073 15.4035L93.7278 15.7652C94.2065 16.222 94.6762 16.6872 95.1366 17.1606L95.495 16.812C95.9606 17.2907 96.4169 17.7777 96.8635 18.2728L96.4923 18.6077C96.9353 19.0988 97.3687 19.5978 97.7922 20.1045L98.1758 19.7838C98.6039 20.2959 99.022 20.8159 99.4299 21.3433L99.0344 21.6492C99.4387 22.1721 99.8328 22.7025 100.217 23.2401L100.624 22.9496C101.011 23.4928 101.388 24.0433 101.755 24.6009L101.337 24.8754C101.7 25.4276 102.052 25.9868 102.393 26.5526L102.821 26.2945C103.165 26.8658 103.498 27.4439 103.82 28.0285L103.382 28.2696C103.7 28.8481 104.008 29.4331 104.303 30.0242L104.75 29.8005C105.049 30.3969 105.335 30.9996 105.61 31.6082L105.154 31.8138C105.426 32.4152 105.685 33.0225 105.933 33.6353L106.396 33.448C106.646 34.0658 106.884 34.6892 107.109 35.318L106.638 35.4865C106.86 36.1074 107.07 36.7336 107.268 37.3649L107.745 37.2155C107.944 37.8513 108.131 38.4922 108.305 39.138L107.822 39.2679C107.993 39.9041 108.152 40.545 108.298 41.1904L108.785 41.0801C108.932 41.729 109.066 42.3823 109.187 43.0398L108.695 43.1302C108.814 43.7778 108.92 44.4296 109.013 45.0853L109.508 45.015C109.602 45.6739 109.682 46.3366 109.749 47.003L109.252 47.0532C109.318 47.708 109.371 48.3663 109.411 49.028L109.91 48.998Z" stroke="white" stroke-miterlimit="16" stroke-dasharray="2 2"/>
<g clip-path="url(#clip0)">
<path d="M45.6729 32.882C42.0667 30.8134 39.143 32.508 39.143 36.664V67.3331C39.143 71.4932 42.0667 73.1856 45.6729 71.119L72.4793 55.7457C76.0868 53.6764 76.0868 50.3238 72.4793 48.255L45.6729 32.882Z" fill="white"  class="area" />
</g>
<defs>
<clipPath id="clip0">
<rect width="40" height="40" fill="white" transform="translate(37 32)"/>
</clipPath>
</defs>
</svg>
