<svg width="24" height="24" viewBox="0 0 24 24" fill="none" xmlns="http://www.w3.org/2000/svg">
<g clip-path="url(#clip0)">
<path d="M22.8381 6.25219L23.7944 5.29594C24.069 5.02135 24.069 4.57618 23.7944 4.30158L22.2441 2.75129L23.7944 1.20104C24.069 0.926443 24.069 0.481271 23.7944 0.206678C23.5198 -0.067916 23.0746 -0.067916 22.8 0.206678L21.2497 1.75693L19.6995 0.206678C19.425 -0.067916 18.9797 -0.067916 18.7052 0.206678L17.7489 1.16293L22.8381 6.25219Z" fill="#595959"/>
<path d="M1.16293 17.7485L0.206678 18.7048C-0.067916 18.9794 -0.067916 19.4246 0.206678 19.6991L1.75697 21.2494L0.206678 22.7997C-0.067916 23.0743 -0.067916 23.5195 0.206678 23.7941C0.343928 23.9313 0.523881 24 0.703834 24C0.883787 24 1.06374 23.9313 1.20099 23.794L2.75129 22.2438L4.30158 23.794C4.43888 23.9313 4.61883 24 4.79874 24C4.97865 24 5.15865 23.9313 5.2959 23.794L6.25215 22.8378L1.16293 17.7485Z" fill="#595959"/>
<path d="M22.7389 8.14137L15.8583 1.26073C15.31 0.712431 14.4178 0.712384 13.8696 1.26073L12.2389 2.89137C11.6906 3.43967 11.6906 4.33179 12.2389 4.88009L15.1821 7.82323L7.82315 15.1821L4.88001 12.239C4.33176 11.6907 3.43954 11.6907 2.89129 12.239L1.26065 13.8696C0.712352 14.4179 0.712352 15.3101 1.26065 15.8584L8.14129 22.739C8.41542 23.0132 8.77556 23.1502 9.13565 23.1502C9.49574 23.1502 9.85588 23.0132 10.13 22.739L11.7606 21.1084C12.3089 20.5601 12.3089 19.6679 11.7606 19.1196L8.81751 16.1765L16.1764 8.81759L19.1196 11.7607C19.3937 12.0349 19.7538 12.172 20.1139 12.172C20.4741 12.172 20.8342 12.0349 21.1083 11.7607L22.7389 10.1301C23.2872 9.58179 23.2872 8.68967 22.7389 8.14137Z" fill="#595959"/>
</g>
<defs>
<clipPath id="clip0">
<rect width="24" height="24" fill="white"/>
</clipPath>
</defs>
</svg>
