<svg width="24" height="24" viewBox="0 0 24 24" fill="none" xmlns="http://www.w3.org/2000/svg">
<g clip-path="url(#clip0)">
<path d="M20.9784 22.4516H19.4518V3.48387C19.4518 3.05627 19.1052 2.70968 18.6776 2.70968H12.8711V0.774194C12.8711 0.346597 12.5245 0 12.0969 0H6.72595C6.29835 0 5.95175 0.346597 5.95175 0.774194V2.70968H5.32272C4.89512 2.70968 4.54853 3.05627 4.54853 3.48387V22.4516H3.02187C2.60487 22.4516 2.24622 22.7722 2.22682 23.1887C2.20611 23.6334 2.56011 24 3.00014 24H8.51627C8.73004 24 8.90336 23.8267 8.90336 23.6129V19.1613H8.58653C8.16967 19.1613 7.81098 18.8409 7.79133 18.4245C7.77038 17.98 8.12467 17.6129 8.56465 17.6129C8.79841 17.6129 15.6072 17.6129 15.4138 17.6129C15.8306 17.6129 16.1893 17.9333 16.2089 18.3496C16.2299 18.7942 15.8757 19.1613 15.4356 19.1613H15.0969V23.6129C15.0969 23.8267 15.2702 24 15.484 24H21.0001C21.4402 24 21.7942 23.6334 21.7735 23.1887C21.7541 22.7722 21.3954 22.4516 20.9784 22.4516ZM10.113 16.0161H9.24207C8.81453 16.0161 8.46788 15.6695 8.46788 15.2419C8.46788 14.8144 8.81453 14.4677 9.24207 14.4677H10.113C10.5406 14.4677 10.8872 14.8144 10.8872 15.2419C10.8872 15.6695 10.5406 16.0161 10.113 16.0161ZM10.113 13.1129H9.24207C8.81453 13.1129 8.46788 12.7663 8.46788 12.3387C8.46788 11.9112 8.81453 11.5645 9.24207 11.5645H10.113C10.5406 11.5645 10.8872 11.9112 10.8872 12.3387C10.8872 12.7663 10.5406 13.1129 10.113 13.1129ZM10.113 10.2097H9.24207C8.81453 10.2097 8.46788 9.86303 8.46788 9.43548C8.46788 9.00794 8.81453 8.66129 9.24207 8.66129H10.113C10.5406 8.66129 10.8872 9.00794 10.8872 9.43548C10.8872 9.86303 10.5406 10.2097 10.113 10.2097ZM10.113 7.30645H9.24207C8.81453 7.30645 8.46788 6.95981 8.46788 6.53226C8.46788 6.10471 8.81453 5.75806 9.24207 5.75806H10.113C10.5406 5.75806 10.8872 6.10471 10.8872 6.53226C10.8872 6.95981 10.5406 7.30645 10.113 7.30645ZM14.7098 16.0161H13.8388C13.4113 16.0161 13.0647 15.6695 13.0647 15.2419C13.0647 14.8144 13.4113 14.4677 13.8388 14.4677H14.7098C15.1374 14.4677 15.484 14.8144 15.484 15.2419C15.484 15.6695 15.1374 16.0161 14.7098 16.0161ZM14.7098 13.1129H13.8388C13.4113 13.1129 13.0647 12.7663 13.0647 12.3387C13.0647 11.9112 13.4113 11.5645 13.8388 11.5645H14.7098C15.1374 11.5645 15.484 11.9112 15.484 12.3387C15.484 12.7663 15.1374 13.1129 14.7098 13.1129ZM14.7098 10.2097H13.8388C13.4113 10.2097 13.0647 9.86303 13.0647 9.43548C13.0647 9.00794 13.4113 8.66129 13.8388 8.66129H14.7098C15.1374 8.66129 15.484 9.00794 15.484 9.43548C15.484 9.86303 15.1374 10.2097 14.7098 10.2097ZM14.7098 7.30645H13.8388C13.4113 7.30645 13.0647 6.95981 13.0647 6.53226C13.0647 6.10471 13.4113 5.75806 13.8388 5.75806H14.7098C15.1374 5.75806 15.484 6.10471 15.484 6.53226C15.484 6.95981 15.1374 7.30645 14.7098 7.30645ZM10.4518 23.6129V19.5484C10.4518 19.3346 10.6251 19.1613 10.8388 19.1613H13.1614C13.3752 19.1613 13.5485 19.3346 13.5485 19.5484V23.6129C13.5485 23.8267 13.3752 24 13.1614 24H10.8388C10.6251 24 10.4518 23.8267 10.4518 23.6129Z" fill="#3A3A3A"/>
</g>
<defs>
<clipPath id="clip0">
<rect width="24" height="24" fill="white"/>
</clipPath>
</defs>
</svg>
