<svg width="24" height="24" viewBox="0 0 24 24" fill="none" xmlns="http://www.w3.org/2000/svg">
<g clip-path="url(#clip0)">
<path d="M23.8342 8.82019C23.7772 8.65411 23.575 8.52494 23.4062 8.52494C22.6751 8.52494 21.9442 8.52494 21.2132 8.52494C21.0444 8.52494 20.8421 8.65411 20.785 8.82019C20.7292 8.98275 20.6875 9.12779 20.6598 9.26419L19.1949 5.21151C18.9533 4.54323 18.3134 4.09424 17.6028 4.09424H6.39895C5.68834 4.09424 5.04858 4.54323 4.80685 5.21163L3.34191 9.26468C3.31411 9.12815 3.2724 8.98293 3.21651 8.82019C3.15946 8.65411 2.9572 8.52494 2.78844 8.52494C2.05746 8.52494 1.32648 8.52494 0.595438 8.52494C0.42668 8.52494 0.224413 8.65411 0.16737 8.82019C-0.0547216 9.46682 -0.0546 9.837 0.167431 10.4837C0.224474 10.6498 0.42674 10.7789 0.595498 10.7789C1.32654 10.7789 2.05752 10.7789 2.7885 10.7789C2.79057 10.7789 2.79276 10.7784 2.79489 10.7783L2.7618 10.87C2.31464 11.0185 1.99178 11.4395 1.99178 11.9366V15.3303V15.61V19.3653C1.99178 19.6639 2.2337 19.9058 2.53223 19.9058H5.25225C5.55072 19.9058 5.7927 19.6639 5.7927 19.3653V16.7344H18.209V19.3653C18.209 19.6639 18.451 19.9058 18.7495 19.9058H21.4695C21.768 19.9058 22.0099 19.6639 22.0099 19.3653V15.61V15.3303V11.9366C22.0099 11.4396 21.6872 11.0187 21.2402 10.87L21.2071 10.7783C21.2091 10.7784 21.2112 10.7789 21.2132 10.7789C21.9443 10.7789 22.6752 10.7789 23.4062 10.7789C23.575 10.7789 23.7773 10.6497 23.8343 10.4836C24.0563 9.837 24.0562 9.46682 23.8342 8.82019ZM6.6059 6.08309H17.3944L19.1037 10.8121H4.89661L6.6059 6.08309ZM6.9068 14.1435H4.63128C4.14306 14.1435 3.74735 13.7478 3.74735 13.2596C3.74735 12.7714 4.143 12.3757 4.63128 12.3757H6.9068C7.39495 12.3757 7.79073 12.7714 7.79073 13.2596C7.79079 13.7478 7.39495 14.1435 6.9068 14.1435ZM19.3703 14.1435H17.0947C16.6066 14.1435 16.2108 13.7478 16.2108 13.2596C16.2108 12.7714 16.6066 12.3757 17.0947 12.3757H19.3703C19.8585 12.3757 20.2542 12.7714 20.2542 13.2596C20.2542 13.7478 19.8585 14.1435 19.3703 14.1435Z" fill="#3A3A3A"/>
</g>
<defs>
<clipPath id="clip0">
<rect width="24" height="24" fill="white"/>
</clipPath>
</defs>
</svg>
