<svg width="24" height="24" viewBox="0 0 24 24" fill="none" xmlns="http://www.w3.org/2000/svg">
<path d="M17.8075 8.93776C17.4339 10.3664 16.562 10.681 16.0967 10.7442C15.8102 11.3171 15.1802 12.488 14.5501 13.0763C14.2982 13.3114 13.9709 13.5098 13.5773 13.666C13.0747 13.8654 12.544 13.9666 11.9999 13.9666C11.4559 13.9666 10.9251 13.8654 10.4225 13.666C10.029 13.5099 9.7016 13.3115 9.44972 13.0763C8.81948 12.4881 8.18956 11.3171 7.90298 10.7442C7.43787 10.681 6.56596 10.3665 6.19231 8.93776C5.99248 8.17378 6.04364 7.55099 6.34449 7.08665C6.47746 6.88144 6.63865 6.74167 6.78874 6.64702C6.78918 6.49451 6.79555 6.30357 6.81323 6.08638C6.54301 5.71087 6.17562 4.90066 6.63063 3.58922C7.11155 2.20279 8.19889 1.98868 8.72373 1.97013C8.90117 1.64029 9.23638 1.172 9.84511 0.741473C10.5208 0.263298 11.4032 0 12.3295 0C13.4695 0 14.6165 0.401206 15.6467 1.16025C17.3168 2.39088 17.1738 5.1207 17.1328 5.61633C17.1934 6.03181 17.2102 6.39218 17.211 6.64691C17.3611 6.74156 17.5223 6.88133 17.6552 7.08654C17.9561 7.55099 18.0072 8.17367 17.8075 8.93776ZM22.692 19.5761V23.451C22.692 23.7542 22.4462 24 22.143 24H1.85667C1.55352 24 1.30768 23.7542 1.30768 23.451V19.5761C1.30768 17.9886 2.26008 16.5819 3.73402 15.9922L8.53389 14.0723C8.67201 14.0172 8.82661 14.0201 8.96243 14.0812C9.09814 14.142 9.20344 14.2554 9.25395 14.3953L10.4606 17.7313L10.6996 17.0444L10.3194 16.1152C10.2503 15.9459 10.2698 15.7532 10.3718 15.6014C10.4738 15.4495 10.6447 15.3584 10.8276 15.3584H13.1722C13.3552 15.3584 13.5261 15.4495 13.628 15.6014C13.73 15.7532 13.7496 15.9459 13.6804 16.1152L13.3003 17.0444L13.5392 17.7313L14.7459 14.3953C14.7964 14.2554 14.9017 14.142 15.0374 14.0812C15.1732 14.0202 15.3279 14.0173 15.4659 14.0723L20.2658 15.9922C21.7398 16.5819 22.692 17.9886 22.692 19.5761ZM19.7696 19.9974C19.7696 19.6942 19.5238 19.4484 19.2206 19.4484H15.5347C15.2315 19.4484 14.9857 19.6942 14.9857 19.9974V21.7092C14.9857 22.0123 15.2315 22.2581 15.5347 22.2581H19.2206C19.5238 22.2581 19.7696 22.0123 19.7696 21.7092V19.9974Z" fill="#3A3A3A"/>
</svg>
