<svg width="24" height="24" viewBox="0 0 24 24" fill="none" xmlns="http://www.w3.org/2000/svg">
<path d="M12.3834 3.60522C7.9937 3.60522 4.43518 7.16374 4.43518 11.5534C4.43518 15.9431 7.9937 19.5016 12.3834 19.5016C16.773 19.5016 20.3315 15.9431 20.3315 11.5534C20.3315 7.16374 16.773 3.60522 12.3834 3.60522ZM12.3833 17.5843C9.0579 17.5843 6.35246 14.8788 6.35246 11.5534C6.35246 8.22804 9.0579 5.5226 12.3833 5.5226C15.7087 5.5226 18.4141 8.22804 18.4141 11.5534C18.4141 14.8788 15.7088 17.5843 12.3833 17.5843Z" fill="#3A3A3A"/>
<path d="M12.3836 7.13892C9.94959 7.13892 7.96936 9.11915 7.96936 11.5532C7.96936 13.9872 9.94959 15.9675 12.3836 15.9675C14.8177 15.9675 16.7979 13.9872 16.7979 11.5532C16.7979 9.11915 14.8177 7.13892 12.3836 7.13892Z" fill="#3A3A3A"/>
<path d="M23.4991 12.2196V2.56111C23.4991 2.46792 23.4396 2.38509 23.3512 2.35533C23.2629 2.32561 23.1654 2.35566 23.1091 2.42991C21.904 4.01911 21.2518 5.9588 21.2518 7.95319V11.4865C21.2518 11.8918 21.5803 12.2203 21.9856 12.2203H22.2915C21.9899 15.3348 21.7906 19.6908 21.7906 20.2008C21.7906 21.0044 22.2852 21.6557 22.8953 21.6557C23.5054 21.6557 24 21.0043 24 20.2008C24 19.6907 23.8007 15.3341 23.4991 12.2196Z" fill="#3A3A3A"/>
<path d="M3.20705 10.3052C3.81839 9.93484 4.227 9.26341 4.227 8.49644L3.92419 3.54545C3.91261 3.35674 3.75619 3.20959 3.56709 3.20959C3.36258 3.20959 3.19964 3.38092 3.20981 3.58506L3.40673 7.5558C3.40673 7.77902 3.22575 7.95991 3.00262 7.95991C2.77945 7.95991 2.59852 7.77892 2.59852 7.5558L2.50012 3.5867C2.49492 3.37694 2.32341 3.20964 2.11355 3.20964C1.90369 3.20964 1.73222 3.37699 1.72697 3.5867L1.62858 7.5558C1.62858 7.77902 1.44759 7.95991 1.22447 7.95991C1.0013 7.95991 0.820359 7.77892 0.820359 7.5558L1.01728 3.58506C1.02741 3.38083 0.864375 3.20959 0.66 3.20959C0.470906 3.20959 0.314484 3.35674 0.302953 3.54545L0 8.49649C0 9.26345 0.408563 9.93484 1.01995 10.3052C1.41783 10.5462 1.63964 10.9968 1.58836 11.4591C1.24322 14.5697 1.00884 19.6479 1.00884 20.201C1.00884 21.0046 1.50342 21.6559 2.1135 21.6559C2.72358 21.6559 3.21816 21.0045 3.21816 20.201C3.21816 19.6479 2.98373 14.5697 2.63864 11.4591C2.58731 10.997 2.80936 10.546 3.20705 10.3052Z" fill="#3A3A3A"/>
</svg>
