<svg width="24" height="24" viewBox="0 0 24 24" fill="none" xmlns="http://www.w3.org/2000/svg">
<g clip-path="url(#clip0)">
<path d="M17.4549 4.13833C17.4549 4.15333 17.4589 4.16631 17.4589 4.18131C17.4529 5.06939 17.2769 5.91644 16.9378 6.70054C16.8558 6.88857 16.6718 7.00155 16.4788 7.00155C16.4128 7.00155 16.3448 6.98856 16.2798 6.96053C16.0268 6.8505 15.9098 6.55648 16.0198 6.30249C16.0387 6.25847 16.0458 6.20948 16.0628 6.16448C16.1687 5.90144 16.2578 5.62842 16.3228 5.34143C16.3368 5.28044 16.3448 5.21743 16.3568 5.15541C16.4158 4.8424 16.4558 4.51837 16.4588 4.17433C16.4598 3.99333 16.4398 3.81828 16.4108 3.64629C16.3058 2.92323 15.9838 2.26219 15.4427 1.71713C14.3596 0.626068 12.4835 0 10.2953 0C8.87316 0 7.16804 0.936077 5.61587 2.56821C4.32975 3.92132 3.01067 5.97448 2.89366 7.88067C4.77683 6.84057 7.30605 5.45347 7.88106 5.18546C9.29817 4.52442 11.8534 3.38531 13.0445 3.18729C13.3165 3.13929 13.5746 3.32629 13.6196 3.59931C13.6646 3.87135 13.4806 4.12937 13.2075 4.17438C12.4235 4.30437 10.6363 5.00343 8.30415 6.09154C7.68708 6.37956 4.57483 8.09369 2.69466 9.13379C2.59265 9.77382 2.49266 10.7269 2.50264 12.004C2.51366 13.3142 4.03779 16.0804 4.80182 16.8984C4.97382 17.7465 5.47786 19.5366 6.12193 20.3787L6.25896 20.5607C6.959 21.5018 8.81719 24 11.5534 24C14.2896 24 16.1478 21.5008 16.8479 20.5607L16.9839 20.3787C17.5409 19.6506 18.229 17.9595 18.324 16.8494C19.2341 15.8033 19.8181 14.5623 20.2832 13.5522C20.4652 13.1591 20.6322 12.7941 20.8012 12.4831C22.3693 9.60478 21.3042 6.93559 17.4549 4.13833ZM16.1898 19.7726L16.0448 19.9656C15.3688 20.8747 13.7866 23.0019 11.5534 23.0019C9.32025 23.0019 7.73808 20.8747 7.06204 19.9656L6.91705 19.7726C6.43302 19.1396 5.93695 17.5324 5.76495 16.6194C5.76593 16.5834 5.76696 16.5404 5.76795 16.4913C5.77493 16.0873 5.79294 15.1402 6.32501 14.2051C7.1881 12.687 9.84229 11.4909 9.9233 11.4499C10.2093 11.2779 10.5194 11.1019 10.8424 10.9169C11.0564 10.7948 11.2794 10.6669 11.5054 10.5358C11.5214 10.5268 11.5374 10.5178 11.5534 10.5088C11.7914 10.6469 12.0254 10.7809 12.2535 10.9109C12.5815 11.0979 12.8945 11.2769 13.2375 11.4789C13.2645 11.4909 15.9188 12.688 16.7818 14.2061C17.3129 15.1402 17.3309 16.0863 17.3399 16.4903C17.3409 16.5813 17.3439 16.6493 17.3459 16.6513C17.3449 17.3885 16.7188 19.0806 16.1898 19.7726Z" fill="#3A3A3A"/>
</g>
<defs>
<clipPath id="clip0">
<rect width="24" height="24" fill="white"/>
</clipPath>
</defs>
</svg>
