<svg width="24" height="24" viewBox="0 0 24 24" fill="none" xmlns="http://www.w3.org/2000/svg">
<path d="M8.66369 18.8274C8.49532 18.968 8.27182 19.0237 8.05718 18.979C7.84244 18.9342 7.66005 18.7936 7.56209 18.5974L5.75655 14.9819C3.33935 16.1292 1.66376 18.5936 1.66376 21.4423V23.2827C1.66376 23.6788 1.98494 24 2.38109 24H11.3932V16.5475L8.66369 18.8274Z" fill="#3A3A3A"/>
<path d="M18.3341 15.0257L16.56 18.5959C16.4616 18.7941 16.2772 18.9357 16.0605 18.9796C16.0131 18.9893 15.9652 18.994 15.9177 18.994C15.748 18.994 15.582 18.9338 15.4508 18.8214L12.8279 16.5732V23.9999H21.6188C22.015 23.9999 22.3362 23.6787 22.3362 23.2826V21.4422C22.3362 18.6292 20.7023 16.1911 18.3341 15.0257ZM18.2396 21.8623H16.0212C15.625 21.8623 15.3039 21.5411 15.3039 21.1449C15.3039 20.7488 15.6251 20.4276 16.0212 20.4276H18.2396C18.6358 20.4276 18.9569 20.7488 18.9569 21.1449C18.9569 21.5411 18.6358 21.8623 18.2396 21.8623Z" fill="#3A3A3A"/>
<path d="M17.5576 10.1726C17.5576 9.95476 17.5447 9.73989 17.5201 9.52848C16.0318 10.3949 13.9236 10.7392 12.0204 10.7392H12.0118C10.1011 10.7392 7.97443 10.3901 6.48207 9.50922C6.45606 9.72681 6.44232 9.94816 6.44232 10.1727C6.44232 11.8168 7.16021 13.2962 8.29866 14.3146C7.89535 14.3434 7.50104 14.4053 7.11877 14.4985L8.44032 17.1447L10.411 15.4985C10.9147 15.6491 11.448 15.7303 12 15.7303C12.603 15.7303 13.1837 15.6334 13.7279 15.455L15.6852 17.1327L16.9818 14.5233C16.5683 14.4161 16.1403 14.3457 15.7016 14.3145C16.8399 13.296 17.5576 11.8166 17.5576 10.1726Z" fill="#3A3A3A"/>
<path d="M12.0212 6.13776H12.0111C9.42688 6.13776 7.00766 6.81229 6.10138 7.09719C6.64672 8.54882 9.34377 9.30463 12.0118 9.30463H12.0204C14.7066 9.30463 17.4222 8.53837 17.9415 7.06724C16.925 6.76593 14.5075 6.13776 12.0212 6.13776Z" fill="#3A3A3A"/>
<path d="M20.3006 2.95973C20.234 2.73112 20.0583 2.55046 19.8315 2.47757L12.2358 0.0351504C12.093 -0.0107402 11.9395 -0.0107402 11.7966 0.0351504L4.20083 2.47757C3.97414 2.55046 3.7984 2.73112 3.73175 2.95973C3.66509 3.18834 3.71623 3.43509 3.86825 3.61842L5.62906 5.74157C6.59183 5.4344 9.17965 4.70371 12.0111 4.70371H12.0213C14.7747 4.70371 17.373 5.3947 18.4262 5.71392L20.1641 3.61842C20.3161 3.43513 20.3672 3.18838 20.3006 2.95973Z" fill="#3A3A3A"/>
</svg>
