<svg width="24" height="24" viewBox="0 0 24 24" fill="none" xmlns="http://www.w3.org/2000/svg">
<g clip-path="url(#clip0)">
<path d="M12 0.000976562C6.93445 0.000976562 2.81325 4.1218 2.81255 9.18726C2.81255 9.18726 2.8125 9.18805 2.8125 9.18843V18.3294C2.8125 18.7177 3.12731 19.0326 3.51562 19.0326H7.0313C7.41961 19.0326 7.73442 18.7177 7.73442 18.3294V9.18838C7.73442 8.80007 7.41961 8.48526 7.0313 8.48526H4.25091C4.60753 4.52296 7.94644 1.40718 12 1.40718C16.0536 1.40718 19.3925 4.52296 19.7491 8.48526H16.9687C16.5803 8.48526 16.2655 8.80007 16.2655 9.18838V18.3294C16.2655 18.7177 16.5803 19.0325 16.9687 19.0325H18.0233V21.1883H14.8125V20.4852C14.8125 20.0969 14.4976 19.7821 14.1093 19.7821H9.89067C9.50236 19.7821 9.18755 20.0969 9.18755 20.4852V23.2977C9.18755 23.686 9.50236 24.0008 9.89067 24.0008H14.1093C14.4976 24.0008 14.8125 23.686 14.8125 23.2977V22.5946H18.7265C19.1148 22.5946 19.4296 22.2798 19.4296 21.8915V19.0325H20.4843C20.8726 19.0325 21.1875 18.7177 21.1875 18.3294V9.18838C21.1875 4.12241 17.066 0.000976562 12 0.000976562Z" fill="#3A3A3A"/>
<path d="M0 10.5939V16.9221C0 17.3104 0.314812 17.6252 0.703125 17.6252H1.40625C1.40625 15.9247 1.40625 11.6038 1.4063 9.89075H0.703125C0.314812 9.89075 0 10.2056 0 10.5939H0Z" fill="#3A3A3A"/>
<path d="M23.2968 9.89075H22.5937V17.6252H23.2968C23.6851 17.6252 23.9999 17.3104 23.9999 16.9221V10.5939C23.9999 10.2056 23.6851 9.89075 23.2968 9.89075Z" fill="#3A3A3A"/>
</g>
<defs>
<clipPath id="clip0">
<rect width="24" height="24" fill="white"/>
</clipPath>
</defs>
</svg>
