<svg width="24" height="24" viewBox="0 0 24 24" fill="none" xmlns="http://www.w3.org/2000/svg">
<path d="M0.855226 8.14859C1.21176 8.26765 1.83979 8.53273 2.43787 9.13081C3.03594 9.72889 3.30102 10.3569 3.42009 10.7135C3.50582 10.9739 3.7552 11.1958 4.08787 11.1959C4.42054 11.1958 4.66991 10.9739 4.75565 10.7135C4.87471 10.3569 5.13979 9.72889 5.73787 9.13081C6.33594 8.53273 6.96402 8.26765 7.32051 8.14859C7.58094 8.06286 7.80285 7.81348 7.80299 7.48081C7.80285 7.14814 7.58094 6.89876 7.32051 6.81303C6.96398 6.69397 6.33594 6.42889 5.73787 5.83081C5.13979 5.23273 4.87471 4.60475 4.75565 4.24817C4.66991 3.98773 4.42054 3.76583 4.08787 3.76569C3.7552 3.76583 3.50582 3.98773 3.42009 4.24817C3.30102 4.6047 3.03594 5.23273 2.43787 5.83081C1.83979 6.42889 1.21171 6.69397 0.855226 6.81303C0.594789 6.89876 0.372882 7.14814 0.372742 7.48081C0.372882 7.81348 0.594789 8.06281 0.855226 8.14859Z" fill="#3A3A3A"/>
<path d="M11.6778 7.48121C11.6778 7.86953 11.9926 8.18434 12.3809 8.18434H13.1841V8.98745C13.1841 9.37576 13.4989 9.69058 13.8872 9.69058C14.2755 9.69058 14.5903 9.37576 14.5903 8.98745V8.18434H15.3934C15.7818 8.18434 16.0966 7.86953 16.0966 7.48121C16.0966 7.0929 15.7818 6.77809 15.3934 6.77809H14.5903V5.97498C14.5903 5.58666 14.2755 5.27185 13.8872 5.27185C13.4989 5.27185 13.1841 5.58666 13.1841 5.97498V6.77809H12.3809C11.9926 6.77809 11.6778 7.0929 11.6778 7.48121Z" fill="#3A3A3A"/>
<path d="M8.61529 2.91248H9.4184V3.71559C9.4184 4.10391 9.73321 4.41872 10.1215 4.41872C10.5098 4.41872 10.8246 4.10391 10.8246 3.71559V2.91248H11.6278C12.0161 2.91248 12.3309 2.59767 12.3309 2.20936C12.3309 1.82105 12.0161 1.50623 11.6278 1.50623H10.8246V0.703125C10.8246 0.314812 10.5098 0 10.1215 0C9.73321 0 9.4184 0.314812 9.4184 0.703125V1.50623H8.61529C8.22698 1.50623 7.91217 1.82105 7.91217 2.20936C7.91217 2.59767 8.22698 2.91248 8.61529 2.91248Z" fill="#3A3A3A"/>
<path d="M12.1615 21.1989C12.1865 21.1957 12.8977 21.1027 13.5639 20.6538C13.5891 20.6367 13.6128 20.6185 13.6373 20.6009L14.9156 14.2093H15.3935C15.7818 14.2093 16.0967 13.8945 16.0967 13.5062C16.0967 13.1179 15.7818 12.803 15.3935 12.803H1.83728C1.44897 12.803 1.13416 13.1179 1.13416 13.5062C1.13416 13.8945 1.44897 14.2093 1.83728 14.2093H2.31526L3.57761 20.5212C3.65045 20.4752 3.71903 20.4207 3.78189 20.3578L8.1183 16.0215C8.39284 15.7469 8.83806 15.7469 9.11265 16.0215C9.38725 16.2961 9.38725 16.7412 9.11265 17.0158L4.77625 21.3522C4.55294 21.5756 4.2384 21.7948 3.86134 21.9399L4.16031 23.4347C4.22603 23.7634 4.51459 23.9999 4.84975 23.9999H10.3917C10.3254 23.8117 10.2847 23.6111 10.2743 23.4019C10.2183 22.2812 11.0466 21.3154 12.1615 21.1989Z" fill="#3A3A3A"/>
<path d="M2.50842 20.6111C2.07028 20.4297 1.78716 20.0059 1.78716 19.5311C1.78716 19.3894 1.81369 19.2519 1.86389 19.1238L1.51055 17.3572L1.11933 17.7484C0.643125 18.2246 0.380859 18.8577 0.380859 19.5317C0.380859 20.5767 1.00477 21.5104 1.97025 21.9103C2.67225 22.2011 3.32902 22.1446 3.86114 21.9399L3.57741 20.5211C3.26133 20.7206 2.86453 20.7586 2.50842 20.6111Z" fill="#3A3A3A"/>
<path d="M20.6154 12.9516V0.703125C20.6154 0.314812 20.3005 0 19.9122 0C19.5239 0 19.2091 0.314812 19.2091 0.703125V12.9516C19.439 12.9199 19.6737 12.9031 19.9122 12.9031C20.1507 12.9031 20.3854 12.9199 20.6154 12.9516Z" fill="#3A3A3A"/>
<path d="M19.9122 14.3093C17.8634 14.3093 16.1966 15.9761 16.1966 18.025C16.1966 22.1632 12.4098 22.5866 12.311 22.5972C11.9381 22.6344 11.66 22.9576 11.6787 23.3318C11.6974 23.7061 12.0062 23.9999 12.3809 23.9999H17.6528C22.9477 23.9999 23.6278 20.0138 23.6278 18.0249C23.6278 15.9761 21.961 14.3093 19.9122 14.3093Z" fill="#3A3A3A"/>
</svg>
