<svg width="24" height="24" viewBox="0 0 24 24" fill="none" xmlns="http://www.w3.org/2000/svg">
<g clip-path="url(#clip0)">
<path d="M17.0196 10.397C16.9424 10.397 16.8631 10.4081 16.7839 10.4299L15.8881 10.6766L14.958 8.41069C14.6944 7.76878 13.9155 7.24646 13.2216 7.24646H4.51629C3.82233 7.24646 3.04347 7.76878 2.77998 8.41069L1.85106 10.6735L0.966348 10.4298C0.887176 10.408 0.807917 10.3969 0.730683 10.3969C0.307262 10.3969 0 10.7204 0 11.1659V11.694C0 12.2141 0.423245 12.6373 0.943363 12.6373H1.04473L0.894574 13.0031C0.649751 13.5993 0.450457 14.609 0.450457 15.2539V19.7553C0.450457 20.2755 0.873702 20.6987 1.39382 20.6987H2.62586C3.14598 20.6987 3.56923 20.2755 3.56923 19.7553V18.6313H14.1686V19.7553C14.1686 20.2755 14.5918 20.6987 15.1119 20.6987H16.3438C16.8639 20.6987 17.2872 20.2755 17.2872 19.7553V15.2539C17.2872 14.6092 17.0879 13.5994 16.8431 13.0032L16.6929 12.6374H16.8069C17.327 12.6374 17.7502 12.2142 17.7502 11.6941V11.166C17.7503 10.7205 17.443 10.397 17.0196 10.397ZM2.52732 12.125L3.93443 8.6977C4.09207 8.31373 4.56058 7.99951 4.97564 7.99951H12.7623C13.1773 7.99951 13.6458 8.31364 13.8035 8.6977L15.2106 12.125C15.3681 12.509 15.1576 12.8232 14.7425 12.8232H2.99548C2.58033 12.8231 2.36977 12.509 2.52732 12.125ZM5.66837 16.4603C5.66837 16.6678 5.49849 16.8375 5.29109 16.8375H2.61811C2.41054 16.8375 2.24075 16.6678 2.24075 16.4603V15.1775C2.24075 14.97 2.41054 14.8002 2.61811 14.8002H5.29109C5.49849 14.8002 5.66837 14.97 5.66837 15.1775V16.4603ZM15.4718 16.4603C15.4718 16.6678 15.3019 16.8375 15.0945 16.8375H12.4215C12.2141 16.8375 12.0443 16.6678 12.0443 16.4603V15.1775C12.0443 14.97 12.2141 14.8002 12.4215 14.8002H15.0945C15.3019 14.8002 15.4718 14.97 15.4718 15.1775V16.4603Z" fill="#3A3A3A"/>
<path d="M22.8199 3.30115H18.3519C17.7013 3.30115 17.172 3.83051 17.172 4.48106V8.94917C17.172 9.5998 17.7014 10.1292 18.3519 10.1292H20.1455V20.1574C20.1455 20.4007 20.3426 20.5977 20.5859 20.5977C20.8291 20.5977 21.0262 20.4007 21.0262 20.1574V10.1293H22.8199C23.4706 10.1293 23.9998 9.59989 23.9998 8.94926V4.48114C23.9998 3.83051 23.4706 3.30115 22.8199 3.30115ZM21.808 7.00582C21.551 7.23717 21.1725 7.35447 20.683 7.35447H20.036C19.9583 7.35447 19.8951 7.41779 19.8951 7.49546V8.58651C19.8951 8.70505 19.7987 8.80139 19.6801 8.80139H19.1901C19.0715 8.80139 18.9751 8.70496 18.9751 8.58651V4.84415C18.9751 4.72553 19.0716 4.62909 19.1901 4.62909H20.4244C21.2421 4.62909 21.5474 4.7523 21.7982 4.96515C22.0627 5.18963 22.1968 5.53344 22.1968 5.98725C22.1967 6.43066 22.066 6.77324 21.808 7.00582Z" fill="#3A3A3A"/>
<path d="M21.1076 5.5327C20.9882 5.44252 20.7769 5.39673 20.4798 5.39673H20.036C19.9584 5.39673 19.8951 5.45996 19.8951 5.53755V6.43423C19.8951 6.51182 19.9584 6.57505 20.036 6.57505H20.3019C20.3996 6.57505 20.5574 6.56783 20.6537 6.55893C20.7471 6.55039 21.0109 6.51217 21.1076 6.43908C21.2238 6.35119 21.2827 6.19919 21.2827 5.98739C21.2827 5.77356 21.2238 5.62059 21.1076 5.5327Z" fill="#3A3A3A"/>
</g>
<defs>
<clipPath id="clip0">
<rect width="24" height="24" fill="white"/>
</clipPath>
</defs>
</svg>
