<svg width="24" height="24" viewBox="0 0 24 24" fill="none" xmlns="http://www.w3.org/2000/svg">
<path d="M22.9091 17.6364H22.1233H1.87673H1.09091C0.488436 17.6364 0 18.1248 0 18.7273V20.9091C0 21.5116 0.488436 22 1.09091 22H22.9091C23.5116 22 24 21.5116 24 20.9091V18.7273C24 18.1248 23.5116 17.6364 22.9091 17.6364Z" fill="#3A3A3A"/>
<path d="M1.87659 15.4545H22.1232C21.6154 10.7099 17.8354 6.92996 13.0908 6.42218V4.18182H14.1817C14.7842 4.18182 15.2726 3.69338 15.2726 3.09091C15.2726 2.48844 14.7842 2 14.1817 2H9.81804C9.21557 2 8.72713 2.48844 8.72713 3.09091C8.72713 3.69338 9.21557 4.18182 9.81804 4.18182H10.909V6.42218C6.1643 6.92996 2.38437 10.7099 1.87659 15.4545Z" fill="#3A3A3A"/>
</svg>
