<svg width="24" height="24" viewBox="0 0 24 24" fill="none" xmlns="http://www.w3.org/2000/svg">
<g clip-path="url(#clip0)">
<path d="M16.9632 15.0804L15.8102 13.2219C17.0203 14.7255 19.2595 14.8002 20.5667 13.4102C21.7603 12.1409 21.6994 10.1477 20.43 8.95385C19.1613 7.7606 17.1676 7.82111 15.9738 9.09058C15.0566 10.0659 14.8902 11.4526 15.4066 12.5715L12.6174 8.07597L16.7565 6.88155C18.042 6.51063 18.6495 5.03922 17.9964 3.8689C17.5221 3.01915 16.5379 2.61405 15.603 2.88386L9.33654 4.69211C7.71181 5.161 6.98422 7.04969 7.87634 8.48763L9.77037 11.5403L6.44867 13.6013C10.4449 13.6931 13.3323 14.9099 16.9632 15.0804Z" fill="currentColor"/>
<path d="M0.895198 17.1509C9.97943 14.5686 13.4103 19.7818 23.4739 17.1549C23.8497 17.0568 24.0747 16.6727 23.9767 16.297C23.8786 15.9213 23.4945 15.6962 23.1188 15.7943C13.4502 18.3182 10.0146 13.0966 0.510682 15.7982C0.137182 15.9044 -0.0795678 16.2933 0.0266041 16.6668C0.132823 17.0404 0.521838 17.2571 0.895198 17.1509Z" fill="currentColor"/>
<path d="M23.1188 19.0757C13.4324 21.6042 10.0334 16.3726 0.510682 19.0797C0.137182 19.1859 -0.0795678 19.5747 0.0266041 19.9483C0.132776 20.3218 0.521792 20.5386 0.895198 20.4324C9.97943 17.85 13.4103 23.0633 23.4739 20.4363C23.8497 20.3383 24.0747 19.9541 23.9767 19.5784C23.8786 19.2027 23.4945 18.9776 23.1188 19.0757Z" fill="currentColor"/>
</g>
<defs>
<clipPath id="clip0">
<rect width="24" height="24" fill="white"/>
</clipPath>
</defs>
</svg>
