<svg width="24" height="24" viewBox="0 0 24 24" fill="none" xmlns="http://www.w3.org/2000/svg">
<g clip-path="url(#clip0)">
<path d="M13.5755 4.94971H2.62582C1.18162 4.94971 0 6.13133 0 7.57553V16.4245C0 17.8687 1.18162 19.0504 2.62582 19.0504H13.5755C15.0197 19.0504 16.2013 17.8687 16.2013 16.4245V7.57553C16.2013 6.10507 15.0197 4.94971 13.5755 4.94971Z" fill="#3A3A3A"/>
<path d="M22.057 6.3938C21.8994 6.42005 21.7419 6.49883 21.6106 6.5776L17.5143 8.94084V15.0327L21.6368 17.396C22.3983 17.8424 23.3436 17.5798 23.79 16.8183C23.9213 16.582 24.0001 16.3194 24.0001 16.0306V7.91677C24.0001 6.94522 23.081 6.15747 22.057 6.3938Z" fill="#3A3A3A"/>
</g>
<defs>
<clipPath id="clip0">
<rect width="24" height="24" fill="white"/>
</clipPath>
</defs>
</svg>
